<svg width="43" height="34" viewBox="0 0 43 34" fill="none" xmlns="http://www.w3.org/2000/svg">
<path d="M5.36 27.6L3.75232 28.7897L3.75902 28.7987L3.76582 28.8077L5.36 27.6ZM5.36 6.44L3.76 5.24L3.75806 5.24259L5.36 6.44ZM21.84 6.44L20.2323 7.6297L20.2381 7.63741L21.84 6.44ZM21.84 27.6L23.442 28.7974L23.4477 28.7897L21.84 27.6ZM9.36 23.84L7.65272 24.8817L7.6567 24.8882L7.66072 24.8947L9.36 23.84ZM17.84 23.8L16.1456 22.7374L16.1391 22.7478L16.1327 22.7583L17.84 23.8ZM17.84 10.16L16.1327 11.2017L16.1391 11.2122L16.1456 11.2226L17.84 10.16ZM13.6 29.56C10.6928 29.56 8.55261 28.5022 6.95418 26.3923L3.76582 28.8077C6.16739 31.9778 9.5205 33.56 13.6 33.56V29.56ZM6.96768 26.4103C5.32092 24.185 4.4 21.1105 4.4 17H0.4C0.4 21.6895 1.45241 25.6817 3.75232 28.7897L6.96768 26.4103ZM4.4 17C4.4 12.8882 5.32142 9.83215 6.96194 7.63741L3.75806 5.24259C1.45191 8.32784 0.4 12.3118 0.4 17H4.4ZM6.96 7.64C8.56158 5.50457 10.7008 4.44 13.6 4.44V0.439998C9.5125 0.439998 6.15843 2.0421 3.76 5.24L6.96 7.64ZM13.6 4.44C16.5312 4.44 18.6623 5.508 20.2323 7.62969L23.4477 5.25031C21.0711 2.03866 17.7088 0.439998 13.6 0.439998V4.44ZM20.2381 7.63741C21.8786 9.83215 22.8 12.8882 22.8 17H26.8C26.8 12.3118 25.7481 8.32784 23.4419 5.24259L20.2381 7.63741ZM22.8 17C22.8 21.1105 21.8791 24.185 20.2323 26.4103L23.4477 28.7897C25.7476 25.6817 26.8 21.6895 26.8 17H22.8ZM20.2381 26.4026C18.6712 28.4988 16.5393 29.56 13.6 29.56V33.56C17.7007 33.56 21.0621 31.9812 23.4419 28.7974L20.2381 26.4026ZM7.66072 24.8947C8.99671 27.0472 11.063 28.16 13.6 28.16V24.16C12.4037 24.16 11.6433 23.7262 11.0593 22.7853L7.66072 24.8947ZM13.6 28.16C16.1529 28.16 18.2185 27.0195 19.5473 24.8417L16.1327 22.7583C15.5415 23.7271 14.7804 24.16 13.6 24.16V28.16ZM19.5344 24.8626C20.8065 22.834 21.32 20.1327 21.32 17H17.32C17.32 19.7873 16.8468 21.6193 16.1456 22.7374L19.5344 24.8626ZM21.32 17C21.32 13.8448 20.8079 11.1282 19.5344 9.09742L16.1456 11.2226C16.8454 12.3385 17.32 14.1819 17.32 17H21.32ZM19.5473 9.11827C18.2185 6.94048 16.1529 5.8 13.6 5.8V9.8C14.7804 9.8 15.5415 10.2329 16.1327 11.2017L19.5473 9.11827ZM13.6 5.8C11.0471 5.8 8.98154 6.94048 7.65272 9.11827L11.0673 11.2017C11.6585 10.2329 12.4196 9.8 13.6 9.8V5.8ZM7.65272 9.11827C6.41683 11.1438 5.92 13.8514 5.92 17H9.92C9.92 14.1752 10.3832 12.3229 11.0673 11.2017L7.65272 9.11827ZM5.92 17C5.92 20.1486 6.41683 22.8562 7.65272 24.8817L11.0673 22.7983C10.3832 21.6771 9.92 19.8248 9.92 17H5.92ZM35.2141 3V0.999998H34.8712L34.5479 1.11421L35.2141 3ZM40.0141 3H42.0141V0.999998H40.0141V3ZM40.0141 31V33H42.0141V31H40.0141ZM34.4941 31H32.4941V33H34.4941V31ZM34.4941 8.84H36.4941V6.20231L33.9543 6.91422L34.4941 8.84ZM29.2141 10.32L27.2922 10.8737L27.842 12.7817L29.7539 12.2458L29.2141 10.32ZM27.8541 5.6L27.1879 3.71421L25.4103 4.34217L25.9322 6.15374L27.8541 5.6ZM35.2141 5H40.0141V0.999998H35.2141V5ZM38.0141 3V31H42.0141V3H38.0141ZM40.0141 29H34.4941V33H40.0141V29ZM36.4941 31V8.84H32.4941V31H36.4941ZM33.9543 6.91422L28.6743 8.39422L29.7539 12.2458L35.0339 10.7658L33.9543 6.91422ZM31.1359 9.76626L29.7759 5.04626L25.9322 6.15374L27.2922 10.8737L31.1359 9.76626ZM28.5202 7.48579L35.8802 4.88579L34.5479 1.11421L27.1879 3.71421L28.5202 7.48579Z" fill="#5F8806"/>
</svg>
