<svg width="50" height="34" viewBox="0 0 50 34" fill="none" xmlns="http://www.w3.org/2000/svg">
<path d="M5.36 27.6L3.75232 28.7897L3.75902 28.7987L3.76582 28.8077L5.36 27.6ZM5.36 6.44L3.76 5.24L3.75806 5.24259L5.36 6.44ZM21.84 6.44L20.2323 7.6297L20.2381 7.63741L21.84 6.44ZM21.84 27.6L23.442 28.7974L23.4477 28.7897L21.84 27.6ZM9.36 23.84L7.65272 24.8817L7.6567 24.8882L7.66072 24.8947L9.36 23.84ZM17.84 23.8L16.1456 22.7374L16.1391 22.7478L16.1327 22.7583L17.84 23.8ZM17.84 10.16L16.1327 11.2017L16.1391 11.2122L16.1456 11.2226L17.84 10.16ZM13.6 29.56C10.6928 29.56 8.55261 28.5022 6.95418 26.3923L3.76582 28.8077C6.16739 31.9778 9.5205 33.56 13.6 33.56V29.56ZM6.96768 26.4103C5.32092 24.185 4.4 21.1105 4.4 17H0.4C0.4 21.6895 1.45241 25.6817 3.75232 28.7897L6.96768 26.4103ZM4.4 17C4.4 12.8882 5.32142 9.83215 6.96194 7.63741L3.75806 5.24259C1.45191 8.32784 0.4 12.3118 0.4 17H4.4ZM6.96 7.64C8.56158 5.50457 10.7008 4.44 13.6 4.44V0.439998C9.5125 0.439998 6.15843 2.0421 3.76 5.24L6.96 7.64ZM13.6 4.44C16.5312 4.44 18.6623 5.508 20.2323 7.62969L23.4477 5.25031C21.0711 2.03866 17.7088 0.439998 13.6 0.439998V4.44ZM20.2381 7.63741C21.8786 9.83215 22.8 12.8882 22.8 17H26.8C26.8 12.3118 25.7481 8.32784 23.4419 5.24259L20.2381 7.63741ZM22.8 17C22.8 21.1105 21.8791 24.185 20.2323 26.4103L23.4477 28.7897C25.7476 25.6817 26.8 21.6895 26.8 17H22.8ZM20.2381 26.4026C18.6712 28.4988 16.5393 29.56 13.6 29.56V33.56C17.7007 33.56 21.0621 31.9812 23.4419 28.7974L20.2381 26.4026ZM7.66072 24.8947C8.99671 27.0472 11.063 28.16 13.6 28.16V24.16C12.4037 24.16 11.6433 23.7262 11.0593 22.7853L7.66072 24.8947ZM13.6 28.16C16.1529 28.16 18.2185 27.0195 19.5473 24.8417L16.1327 22.7583C15.5415 23.7271 14.7804 24.16 13.6 24.16V28.16ZM19.5344 24.8626C20.8065 22.834 21.32 20.1327 21.32 17H17.32C17.32 19.7873 16.8468 21.6193 16.1456 22.7374L19.5344 24.8626ZM21.32 17C21.32 13.8448 20.8079 11.1282 19.5344 9.09742L16.1456 11.2226C16.8454 12.3385 17.32 14.1819 17.32 17H21.32ZM19.5473 9.11827C18.2185 6.94048 16.1529 5.8 13.6 5.8V9.8C14.7804 9.8 15.5415 10.2329 16.1327 11.2017L19.5473 9.11827ZM13.6 5.8C11.0471 5.8 8.98154 6.94048 7.65272 9.11827L11.0673 11.2017C11.6585 10.2329 12.4196 9.8 13.6 9.8V5.8ZM7.65272 9.11827C6.41683 11.1438 5.92 13.8514 5.92 17H9.92C9.92 14.1752 10.3832 12.3229 11.0673 11.2017L7.65272 9.11827ZM5.92 17C5.92 20.1486 6.41683 22.8562 7.65272 24.8817L11.0673 22.7983C10.3832 21.6771 9.92 19.8248 9.92 17H5.92ZM28.5722 31H26.5722V33H28.5722V31ZM28.5722 26.88L27.1377 25.4863L26.5722 26.0684V26.88H28.5722ZM38.1322 17.04L39.5667 18.4337L39.5736 18.4265L39.5805 18.4193L38.1322 17.04ZM40.2922 8.8L38.878 10.2142L38.8918 10.2281L38.906 10.2417L40.2922 8.8ZM33.0122 11.08L32.0007 12.8054L33.9008 13.9192L34.8268 11.9209L33.0122 11.08ZM28.3722 8.36L26.5541 7.52669L25.8005 9.17078L27.3607 10.0854L28.3722 8.36ZM32.1722 3.96L31.1271 2.2548L31.1271 2.2548L32.1722 3.96ZM44.1322 4.84L42.8089 6.33967L42.8152 6.34518L42.8215 6.35064L44.1322 4.84ZM36.7722 25.68L35.358 24.2658L31.9438 27.68H36.7722V25.68ZM47.2922 25.68H49.2922V23.68H47.2922V25.68ZM47.2922 31V33H49.2922V31H47.2922ZM30.5722 31V26.88H26.5722V31H30.5722ZM30.0067 28.2737L39.5667 18.4337L36.6977 15.6463L27.1377 25.4863L30.0067 28.2737ZM39.5805 18.4193C40.7143 17.2288 41.6287 16.0722 42.2687 14.9523C42.9034 13.8416 43.3322 12.6547 43.3322 11.44H39.3322C39.3322 11.7186 39.2277 12.2117 38.7957 12.9677C38.369 13.7145 37.6834 14.6112 36.6839 15.6607L39.5805 18.4193ZM43.3322 11.44C43.3322 9.88407 42.819 8.45502 41.6784 7.35833L38.906 10.2417C39.1521 10.4783 39.3322 10.8093 39.3322 11.44H43.3322ZM41.7064 7.38579C40.6142 6.29356 39.2134 5.8 37.6922 5.8V9.8C38.3044 9.8 38.6369 9.9731 38.878 10.2142L41.7064 7.38579ZM37.6922 5.8C36.2736 5.8 34.9461 6.17498 33.7943 6.98219C32.6587 7.77807 31.8137 8.90947 31.1976 10.2391L34.8268 11.9209C35.224 11.0639 35.6656 10.5553 36.0901 10.2578C36.4983 9.97169 37.0041 9.8 37.6922 9.8V5.8ZM34.0236 9.3546L29.3836 6.6346L27.3607 10.0854L32.0007 12.8054L34.0236 9.3546ZM30.1903 9.19331C30.9203 7.60059 31.9327 6.45254 33.2173 5.6652L31.1271 2.2548C29.105 3.49412 27.5841 5.27941 26.5541 7.52669L30.1903 9.19331ZM33.2173 5.6652C34.5503 4.84819 36.0009 4.44 37.6122 4.44V0.439998C35.2768 0.439998 33.1007 1.04514 31.1271 2.2548L33.2173 5.6652ZM37.6122 4.44C39.6835 4.44 41.3796 5.07846 42.8089 6.33967L45.4554 3.34032C43.2581 1.40154 40.6075 0.439998 37.6122 0.439998V4.44ZM42.8215 6.35064C44.1407 7.49522 44.8522 9.04731 44.8522 11.24H48.8522C48.8522 8.04602 47.7504 5.33144 45.4429 3.32935L42.8215 6.35064ZM44.8522 11.24C44.8522 13.4041 43.7123 15.9114 40.838 18.7858L43.6664 21.6142C46.9254 18.3552 48.8522 14.8892 48.8522 11.24H44.8522ZM40.838 18.7858L35.358 24.2658L38.1864 27.0942L43.6664 21.6142L40.838 18.7858ZM36.7722 27.68H47.2922V23.68H36.7722V27.68ZM45.2922 25.68V31H49.2922V25.68H45.2922ZM47.2922 29H28.5722V33H47.2922V29Z" fill="#5F8806"/>
</svg>
