<svg width="50" height="34" viewBox="0 0 50 34" fill="none" xmlns="http://www.w3.org/2000/svg">
<path d="M5.36 27.6L3.75232 28.7897L3.75902 28.7987L3.76582 28.8077L5.36 27.6ZM5.36 6.44L3.76 5.24L3.75806 5.24259L5.36 6.44ZM21.84 6.44L20.2323 7.6297L20.2381 7.63741L21.84 6.44ZM21.84 27.6L23.442 28.7974L23.4477 28.7897L21.84 27.6ZM9.36 23.84L7.65272 24.8817L7.6567 24.8882L7.66072 24.8947L9.36 23.84ZM17.84 23.8L16.1456 22.7374L16.1391 22.7478L16.1327 22.7583L17.84 23.8ZM17.84 10.16L16.1327 11.2017L16.1391 11.2122L16.1456 11.2226L17.84 10.16ZM13.6 29.56C10.6928 29.56 8.55261 28.5022 6.95418 26.3923L3.76582 28.8077C6.16739 31.9778 9.5205 33.56 13.6 33.56V29.56ZM6.96768 26.4103C5.32092 24.185 4.4 21.1105 4.4 17H0.4C0.4 21.6895 1.45241 25.6817 3.75232 28.7897L6.96768 26.4103ZM4.4 17C4.4 12.8882 5.32142 9.83215 6.96194 7.63741L3.75806 5.24259C1.45191 8.32784 0.4 12.3118 0.4 17H4.4ZM6.96 7.64C8.56158 5.50457 10.7008 4.44 13.6 4.44V0.439998C9.5125 0.439998 6.15843 2.0421 3.76 5.24L6.96 7.64ZM13.6 4.44C16.5312 4.44 18.6623 5.508 20.2323 7.62969L23.4477 5.25031C21.0711 2.03866 17.7088 0.439998 13.6 0.439998V4.44ZM20.2381 7.63741C21.8786 9.83215 22.8 12.8882 22.8 17H26.8C26.8 12.3118 25.7481 8.32784 23.4419 5.24259L20.2381 7.63741ZM22.8 17C22.8 21.1105 21.8791 24.185 20.2323 26.4103L23.4477 28.7897C25.7476 25.6817 26.8 21.6895 26.8 17H22.8ZM20.2381 26.4026C18.6712 28.4988 16.5393 29.56 13.6 29.56V33.56C17.7007 33.56 21.0621 31.9812 23.4419 28.7974L20.2381 26.4026ZM7.66072 24.8947C8.99671 27.0472 11.063 28.16 13.6 28.16V24.16C12.4037 24.16 11.6433 23.7262 11.0593 22.7853L7.66072 24.8947ZM13.6 28.16C16.1529 28.16 18.2185 27.0195 19.5473 24.8417L16.1327 22.7583C15.5415 23.7271 14.7804 24.16 13.6 24.16V28.16ZM19.5344 24.8626C20.8065 22.834 21.32 20.1327 21.32 17H17.32C17.32 19.7873 16.8468 21.6193 16.1456 22.7374L19.5344 24.8626ZM21.32 17C21.32 13.8448 20.8079 11.1282 19.5344 9.09742L16.1456 11.2226C16.8454 12.3385 17.32 14.1819 17.32 17H21.32ZM19.5473 9.11827C18.2185 6.94048 16.1529 5.8 13.6 5.8V9.8C14.7804 9.8 15.5415 10.2329 16.1327 11.2017L19.5473 9.11827ZM13.6 5.8C11.0471 5.8 8.98154 6.94048 7.65272 9.11827L11.0673 11.2017C11.6585 10.2329 12.4196 9.8 13.6 9.8V5.8ZM7.65272 9.11827C6.41683 11.1438 5.92 13.8514 5.92 17H9.92C9.92 14.1752 10.3832 12.3229 11.0673 11.2017L7.65272 9.11827ZM5.92 17C5.92 20.1486 6.41683 22.8562 7.65272 24.8817L11.0673 22.7983C10.3832 21.6771 9.92 19.8248 9.92 17H5.92ZM41.1825 14.36L39.5983 13.1392L37.8174 15.4503L40.6152 16.2779L41.1825 14.36ZM45.7825 17.32L44.2437 18.5975L44.2568 18.6133L44.2702 18.6288L45.7825 17.32ZM44.6625 29.12L43.38 27.5852L43.3697 27.594L44.6625 29.12ZM31.7025 30.08L30.6814 31.7997L30.6972 31.8091L30.7131 31.8181L31.7025 30.08ZM27.9825 25.64L26.9839 23.9071L25.4852 24.7708L26.1238 26.3784L27.9825 25.64ZM32.7025 22.92L34.6068 22.3087L33.8498 19.9505L31.7039 21.1871L32.7025 22.92ZM40.8625 25.16L42.1684 26.6748L42.1724 26.6714L40.8625 25.16ZM40.8625 19.6L39.5274 21.0891L39.5399 21.1004L39.5526 21.1114L40.8625 19.6ZM36.3825 18.56L34.7152 19.6646L35.3084 20.56H36.3825V18.56ZM34.2625 15.36L32.6753 14.1431L31.8073 15.2753L32.5952 16.4646L34.2625 15.36ZM39.7825 8.16L41.3697 9.37686L43.836 6.16H39.7825V8.16ZM28.8225 8.16H26.8225V10.16H28.8225V8.16ZM28.8225 3V0.999998H26.8225V3H28.8225ZM46.4225 3H48.4225V0.999998H46.4225V3ZM46.4225 7.56L48.0067 8.78077L48.4225 8.24119V7.56H46.4225ZM40.6152 16.2779C42.1583 16.7343 43.3428 17.5123 44.2437 18.5975L47.3213 16.0425C45.8756 14.301 43.9934 13.1057 41.7498 12.4421L40.6152 16.2779ZM44.2702 18.6288C45.1307 19.6231 45.5825 20.8278 45.5825 22.36H49.5825C49.5825 19.9456 48.8343 17.7902 47.2948 16.0112L44.2702 18.6288ZM45.5825 22.36C45.5825 24.7373 44.8072 26.3927 43.3801 27.5853L45.9449 30.6547C48.4111 28.5939 49.5825 25.7427 49.5825 22.36H45.5825ZM43.3697 27.594C41.8522 28.8797 39.966 29.56 37.5825 29.56V33.56C40.799 33.56 43.6328 32.6136 45.9553 30.646L43.3697 27.594ZM37.5825 29.56C35.7084 29.56 34.0952 29.1407 32.6919 28.3419L30.7131 31.8181C32.7764 32.9926 35.0832 33.56 37.5825 33.56V29.56ZM32.7236 28.3603C31.4188 27.5856 30.4611 26.462 29.8412 24.9016L26.1238 26.3784C27.0506 28.7114 28.5729 30.5478 30.6814 31.7997L32.7236 28.3603ZM28.9811 27.3729L33.7011 24.6529L31.7039 21.1871L26.9839 23.9071L28.9811 27.3729ZM30.7982 23.5313C31.26 24.9701 32.0855 26.1858 33.3363 27.0162C34.5653 27.8322 36.0296 28.16 37.5825 28.16V24.16C36.5754 24.16 35.9464 23.9478 35.5487 23.6838C35.1728 23.4342 34.8383 23.0299 34.6068 22.3087L30.7982 23.5313ZM37.5825 28.16C39.2915 28.16 40.9136 27.7566 42.1684 26.6748L39.5566 23.6452C39.2648 23.8968 38.7002 24.16 37.5825 24.16V28.16ZM42.1724 26.6714C43.4613 25.5543 44.0625 24.0428 44.0625 22.36H40.0625C40.0625 23.0238 39.8637 23.3791 39.5526 23.6486L42.1724 26.6714ZM44.0625 22.36C44.0625 20.6878 43.4503 19.1961 42.1724 18.0886L39.5526 21.1114C39.8747 21.3905 40.0625 21.7389 40.0625 22.36H44.0625ZM42.1976 18.1109C40.9427 16.9858 39.3092 16.56 37.5825 16.56V20.56C38.6825 20.56 39.2356 20.8275 39.5274 21.0891L42.1976 18.1109ZM37.5825 16.56H36.3825V20.56H37.5825V16.56ZM38.0498 17.4554L35.9298 14.2554L32.5952 16.4646L34.7152 19.6646L38.0498 17.4554ZM35.8497 16.5769L41.3697 9.37686L38.1953 6.94314L32.6753 14.1431L35.8497 16.5769ZM39.7825 6.16H28.8225V10.16H39.7825V6.16ZM30.8225 8.16V3H26.8225V8.16H30.8225ZM28.8225 5H46.4225V0.999998H28.8225V5ZM44.4225 3V7.56H48.4225V3H44.4225ZM44.8383 6.33923L39.5983 13.1392L42.7667 15.5808L48.0067 8.78077L44.8383 6.33923Z" fill="#5F8806"/>
</svg>
