<svg width="53" height="34" viewBox="0 0 53 34" fill="none" xmlns="http://www.w3.org/2000/svg">
<path d="M5.36 27.6L3.75232 28.7897L3.75902 28.7987L3.76582 28.8077L5.36 27.6ZM5.36 6.44L3.76 5.24L3.75806 5.24259L5.36 6.44ZM21.84 6.44L20.2323 7.6297L20.2381 7.63741L21.84 6.44ZM21.84 27.6L23.442 28.7974L23.4477 28.7897L21.84 27.6ZM9.36 23.84L7.65272 24.8817L7.6567 24.8882L7.66072 24.8947L9.36 23.84ZM17.84 23.8L16.1456 22.7374L16.1391 22.7478L16.1327 22.7583L17.84 23.8ZM17.84 10.16L16.1327 11.2017L16.1391 11.2122L16.1456 11.2226L17.84 10.16ZM13.6 29.56C10.6928 29.56 8.55261 28.5022 6.95418 26.3923L3.76582 28.8077C6.16739 31.9778 9.5205 33.56 13.6 33.56V29.56ZM6.96768 26.4103C5.32092 24.185 4.4 21.1105 4.4 17H0.4C0.4 21.6895 1.45241 25.6817 3.75232 28.7897L6.96768 26.4103ZM4.4 17C4.4 12.8882 5.32142 9.83215 6.96194 7.63741L3.75806 5.24259C1.45191 8.32784 0.4 12.3118 0.4 17H4.4ZM6.96 7.64C8.56158 5.50457 10.7008 4.44 13.6 4.44V0.439998C9.5125 0.439998 6.15843 2.0421 3.76 5.24L6.96 7.64ZM13.6 4.44C16.5312 4.44 18.6623 5.508 20.2323 7.62969L23.4477 5.25031C21.0711 2.03866 17.7088 0.439998 13.6 0.439998V4.44ZM20.2381 7.63741C21.8786 9.83215 22.8 12.8882 22.8 17H26.8C26.8 12.3118 25.7481 8.32784 23.4419 5.24259L20.2381 7.63741ZM22.8 17C22.8 21.1105 21.8791 24.185 20.2323 26.4103L23.4477 28.7897C25.7476 25.6817 26.8 21.6895 26.8 17H22.8ZM20.2381 26.4026C18.6712 28.4988 16.5393 29.56 13.6 29.56V33.56C17.7007 33.56 21.0621 31.9812 23.4419 28.7974L20.2381 26.4026ZM7.66072 24.8947C8.99671 27.0472 11.063 28.16 13.6 28.16V24.16C12.4037 24.16 11.6433 23.7262 11.0593 22.7853L7.66072 24.8947ZM13.6 28.16C16.1529 28.16 18.2185 27.0195 19.5473 24.8417L16.1327 22.7583C15.5415 23.7271 14.7804 24.16 13.6 24.16V28.16ZM19.5344 24.8626C20.8065 22.834 21.32 20.1327 21.32 17H17.32C17.32 19.7873 16.8468 21.6193 16.1456 22.7374L19.5344 24.8626ZM21.32 17C21.32 13.8448 20.8079 11.1282 19.5344 9.09742L16.1456 11.2226C16.8454 12.3385 17.32 14.1819 17.32 17H21.32ZM19.5473 9.11827C18.2185 6.94048 16.1529 5.8 13.6 5.8V9.8C14.7804 9.8 15.5415 10.2329 16.1327 11.2017L19.5473 9.11827ZM13.6 5.8C11.0471 5.8 8.98154 6.94048 7.65272 9.11827L11.0673 11.2017C11.6585 10.2329 12.4196 9.8 13.6 9.8V5.8ZM7.65272 9.11827C6.41683 11.1438 5.92 13.8514 5.92 17H9.92C9.92 14.1752 10.3832 12.3229 11.0673 11.2017L7.65272 9.11827ZM5.92 17C5.92 20.1486 6.41683 22.8562 7.65272 24.8817L11.0673 22.7983C10.3832 21.6771 9.92 19.8248 9.92 17H5.92ZM50.8353 21.12H52.8353V19.12H50.8353V21.12ZM50.8353 26.24V28.24H52.8353V26.24H50.8353ZM47.8353 26.24V24.24H45.8353V26.24H47.8353ZM47.8353 31V33H49.8353V31H47.8353ZM42.2753 31H40.2753V33H42.2753V31ZM42.2753 26.24H44.2753V24.24H42.2753V26.24ZM29.0353 26.24H27.0353V28.24H29.0353V26.24ZM29.0353 21.12L27.2568 20.2052L27.0353 20.6358V21.12H29.0353ZM38.3553 3V0.999998H37.135L36.5768 2.08521L38.3553 3ZM44.2753 3L46.0554 3.91167L47.5466 0.999998H44.2753V3ZM34.9953 21.12L33.2152 20.2083L31.724 23.12H34.9953V21.12ZM42.2753 21.12V23.12H44.2753V21.12H42.2753ZM42.2753 14.48V12.48H40.2753V14.48H42.2753ZM47.8353 14.48H49.8353V12.48H47.8353V14.48ZM47.8353 21.12H45.8353V23.12H47.8353V21.12ZM48.8353 21.12V26.24H52.8353V21.12H48.8353ZM50.8353 24.24H47.8353V28.24H50.8353V24.24ZM45.8353 26.24V31H49.8353V26.24H45.8353ZM47.8353 29H42.2753V33H47.8353V29ZM44.2753 31V26.24H40.2753V31H44.2753ZM42.2753 24.24H29.0353V28.24H42.2753V24.24ZM31.0353 26.24V21.12H27.0353V26.24H31.0353ZM30.8138 22.0348L40.1338 3.91478L36.5768 2.08521L27.2568 20.2052L30.8138 22.0348ZM38.3553 5H44.2753V0.999998H38.3553V5ZM42.4952 2.08832L33.2152 20.2083L36.7754 22.0317L46.0554 3.91167L42.4952 2.08832ZM34.9953 23.12H42.2753V19.12H34.9953V23.12ZM44.2753 21.12V14.48H40.2753V21.12H44.2753ZM42.2753 16.48H47.8353V12.48H42.2753V16.48ZM45.8353 14.48V21.12H49.8353V14.48H45.8353ZM47.8353 23.12H50.8353V19.12H47.8353V23.12Z" fill="#5F8806"/>
</svg>
