<svg width="51" height="34" viewBox="0 0 51 34" fill="none" xmlns="http://www.w3.org/2000/svg">
<path d="M5.36 27.6L3.75232 28.7897L3.75902 28.7987L3.76582 28.8077L5.36 27.6ZM5.36 6.44L3.76 5.24L3.75806 5.24259L5.36 6.44ZM21.84 6.44L20.2323 7.6297L20.2381 7.63741L21.84 6.44ZM21.84 27.6L23.442 28.7974L23.4477 28.7897L21.84 27.6ZM9.36 23.84L7.65272 24.8817L7.6567 24.8882L7.66072 24.8947L9.36 23.84ZM17.84 23.8L16.1456 22.7374L16.1391 22.7478L16.1327 22.7583L17.84 23.8ZM17.84 10.16L16.1327 11.2017L16.1391 11.2122L16.1456 11.2226L17.84 10.16ZM13.6 29.56C10.6928 29.56 8.55261 28.5022 6.95418 26.3923L3.76582 28.8077C6.16739 31.9778 9.5205 33.56 13.6 33.56V29.56ZM6.96768 26.4103C5.32092 24.185 4.4 21.1105 4.4 17H0.4C0.4 21.6895 1.45241 25.6817 3.75232 28.7897L6.96768 26.4103ZM4.4 17C4.4 12.8882 5.32142 9.83215 6.96194 7.63741L3.75806 5.24259C1.45191 8.32784 0.4 12.3118 0.4 17H4.4ZM6.96 7.64C8.56158 5.50457 10.7008 4.44 13.6 4.44V0.439998C9.5125 0.439998 6.15843 2.0421 3.76 5.24L6.96 7.64ZM13.6 4.44C16.5312 4.44 18.6623 5.508 20.2323 7.62969L23.4477 5.25031C21.0711 2.03866 17.7088 0.439998 13.6 0.439998V4.44ZM20.2381 7.63741C21.8786 9.83215 22.8 12.8882 22.8 17H26.8C26.8 12.3118 25.7481 8.32784 23.4419 5.24259L20.2381 7.63741ZM22.8 17C22.8 21.1105 21.8791 24.185 20.2323 26.4103L23.4477 28.7897C25.7476 25.6817 26.8 21.6895 26.8 17H22.8ZM20.2381 26.4026C18.6712 28.4988 16.5393 29.56 13.6 29.56V33.56C17.7007 33.56 21.0621 31.9812 23.4419 28.7974L20.2381 26.4026ZM7.66072 24.8947C8.99671 27.0472 11.063 28.16 13.6 28.16V24.16C12.4037 24.16 11.6433 23.7262 11.0593 22.7853L7.66072 24.8947ZM13.6 28.16C16.1529 28.16 18.2185 27.0195 19.5473 24.8417L16.1327 22.7583C15.5415 23.7271 14.7804 24.16 13.6 24.16V28.16ZM19.5344 24.8626C20.8065 22.834 21.32 20.1327 21.32 17H17.32C17.32 19.7873 16.8468 21.6193 16.1456 22.7374L19.5344 24.8626ZM21.32 17C21.32 13.8448 20.8079 11.1282 19.5344 9.09742L16.1456 11.2226C16.8454 12.3385 17.32 14.1819 17.32 17H21.32ZM19.5473 9.11827C18.2185 6.94048 16.1529 5.8 13.6 5.8V9.8C14.7804 9.8 15.5415 10.2329 16.1327 11.2017L19.5473 9.11827ZM13.6 5.8C11.0471 5.8 8.98154 6.94048 7.65272 9.11827L11.0673 11.2017C11.6585 10.2329 12.4196 9.8 13.6 9.8V5.8ZM7.65272 9.11827C6.41683 11.1438 5.92 13.8514 5.92 17H9.92C9.92 14.1752 10.3832 12.3229 11.0673 11.2017L7.65272 9.11827ZM5.92 17C5.92 20.1486 6.41683 22.8562 7.65272 24.8817L11.0673 22.7983C10.3832 21.6771 9.92 19.8248 9.92 17H5.92ZM45.8828 15.64L44.5581 17.1384L44.5643 17.1438L44.5705 17.1492L45.8828 15.64ZM45.7228 29.12L44.4403 27.5852L44.43 27.594L45.7228 29.12ZM32.6428 30.04L31.6334 31.7666L32.6428 30.04ZM28.8828 25.56L27.8733 23.8335L26.3965 24.697L27.0207 26.2897L28.8828 25.56ZM33.6028 22.8L35.5134 22.2086L34.7684 19.8016L32.5933 21.0735L33.6028 22.8ZM41.9228 25.16L43.2287 26.6748L43.2327 26.6714L41.9228 25.16ZM41.9628 19.6L43.2979 18.1109V18.1109L41.9628 19.6ZM30.3228 18.56L28.328 18.4164L28.1737 20.56H30.3228V18.56ZM31.4428 3V0.999998H29.5816L29.448 2.85641L31.4428 3ZM47.3228 3H49.3228V0.999998H47.3228V3ZM47.3228 8.16V10.16H49.3228V8.16H47.3228ZM36.5628 8.16V6.16H34.7006L34.5679 8.0175L36.5628 8.16ZM36.2028 13.2L34.2079 13.0575L34.0549 15.2H36.2028V13.2ZM39.0828 15.2C41.3391 15.2 43.1201 15.8671 44.5581 17.1384L47.2075 14.1416C44.9655 12.1595 42.2132 11.2 39.0828 11.2V15.2ZM44.5705 17.1492C45.8935 18.2997 46.6428 19.9435 46.6428 22.36H50.6428C50.6428 19.0165 49.5521 16.1803 47.1952 14.1308L44.5705 17.1492ZM46.6428 22.36C46.6428 24.7373 45.8675 26.3927 44.4404 27.5853L47.0052 30.6547C49.4714 28.5939 50.6428 25.7427 50.6428 22.36H46.6428ZM44.43 27.594C42.9125 28.8797 41.0264 29.56 38.6428 29.56V33.56C41.8593 33.56 44.6932 32.6136 47.0156 30.646L44.43 27.594ZM38.6428 29.56C36.6842 29.56 35.0413 29.1255 33.6522 28.3134L31.6334 31.7666C33.7109 32.9811 36.0681 33.56 38.6428 33.56V29.56ZM33.6522 28.3134C32.3297 27.5402 31.364 26.4099 30.7449 24.8303L27.0207 26.2897C27.9483 28.6568 29.4893 30.5131 31.6334 31.7666L33.6522 28.3134ZM29.8924 27.2865L34.6124 24.5265L32.5933 21.0735L27.8733 23.8335L29.8924 27.2865ZM31.6922 23.3914C32.1518 24.876 32.991 26.1291 34.2734 26.9841C35.5322 27.8233 37.0392 28.16 38.6428 28.16V24.16C37.5798 24.16 36.9135 23.9367 36.4922 23.6559C36.0947 23.3909 35.7472 22.964 35.5134 22.2086L31.6922 23.3914ZM38.6428 28.16C40.3518 28.16 41.9739 27.7566 43.2287 26.6748L40.6169 23.6452C40.3251 23.8968 39.7605 24.16 38.6428 24.16V28.16ZM43.2327 26.6714C44.5216 25.5543 45.1228 24.0428 45.1228 22.36H41.1228C41.1228 23.0238 40.924 23.3791 40.613 23.6486L43.2327 26.6714ZM45.1228 22.36C45.1228 20.7111 44.5412 19.2255 43.2979 18.1109L40.6277 21.0891C40.9311 21.3611 41.1228 21.7156 41.1228 22.36H45.1228ZM43.2979 18.1109C42.063 17.0037 40.4849 16.56 38.8028 16.56V20.56C39.7874 20.56 40.316 20.8096 40.6277 21.0891L43.2979 18.1109ZM38.8028 16.56H30.3228V20.56H38.8028V16.56ZM32.3177 18.7036L33.4377 3.14359L29.448 2.85641L28.328 18.4164L32.3177 18.7036ZM31.4428 5H47.3228V0.999998H31.4428V5ZM45.3228 3V8.16H49.3228V3H45.3228ZM47.3228 6.16H36.5628V10.16H47.3228V6.16ZM34.5679 8.0175L34.2079 13.0575L38.1977 13.3425L38.5577 8.30249L34.5679 8.0175ZM36.2028 15.2H39.0828V11.2H36.2028V15.2Z" fill="#5F8806"/>
</svg>
