<svg width="40" height="40" viewBox="0 0 40 40" fill="none" xmlns="http://www.w3.org/2000/svg">
<circle cx="20" cy="20" r="19.5" fill="white" stroke="#444444"/>
<path d="M26.7543 20.0491C26.756 20.3438 26.6993 20.6359 26.5873 20.9088C26.4753 21.1816 26.3103 21.4297 26.1018 21.639L17.1018 30.5963C16.892 30.8051 16.643 30.9707 16.3689 31.0837C16.0948 31.1967 15.801 31.2549 15.5043 31.2549C15.2076 31.2549 14.9138 31.1967 14.6397 31.0837C14.3656 30.9707 14.1166 30.8051 13.9068 30.5963C13.697 30.3875 13.5306 30.1396 13.4171 29.8668C13.3035 29.594 13.2451 29.3017 13.2451 29.0064C13.2451 28.7111 13.3035 28.4187 13.4171 28.1459C13.5306 27.8731 13.697 27.6253 13.9068 27.4165L21.3543 20.0491L14.1993 12.6593C13.9692 12.4533 13.7842 12.2022 13.656 11.9218C13.5278 11.6414 13.459 11.3377 13.4541 11.0297C13.4492 10.7217 13.5082 10.4159 13.6275 10.1317C13.7467 9.84735 13.9236 9.5906 14.1471 9.37745C14.3706 9.1643 14.6358 8.99932 14.9263 8.89286C15.2167 8.78639 15.5261 8.74072 15.8352 8.7587C16.1442 8.77668 16.4461 8.85792 16.7221 8.99734C16.9982 9.13676 17.2423 9.33136 17.4393 9.56898L26.1243 18.5263C26.521 18.9358 26.7463 19.4803 26.7543 20.0491Z" fill="#212121"/>
</svg>
