<svg width="40" height="40" viewBox="0 0 40 40" fill="none" xmlns="http://www.w3.org/2000/svg">
<circle r="19.5" transform="matrix(-1 0 0 1 20 20)" fill="white" stroke="#444444"/>
<path d="M13.2457 20.0491C13.244 20.3438 13.3007 20.6359 13.4127 20.9088C13.5247 21.1816 13.6897 21.4297 13.8982 21.639L22.8982 30.5963C23.108 30.8051 23.357 30.9707 23.6311 31.0837C23.9052 31.1967 24.199 31.2549 24.4957 31.2549C24.7924 31.2549 25.0862 31.1967 25.3603 31.0837C25.6344 30.9707 25.8834 30.8051 26.0932 30.5963C26.303 30.3875 26.4694 30.1396 26.5829 29.8668C26.6965 29.594 26.7549 29.3017 26.7549 29.0064C26.7549 28.7111 26.6965 28.4187 26.5829 28.1459C26.4694 27.8731 26.303 27.6253 26.0932 27.4165L18.6457 20.0491L25.8007 12.6593C26.0308 12.4533 26.2158 12.2022 26.344 11.9218C26.4722 11.6414 26.541 11.3377 26.5459 11.0297C26.5508 10.7217 26.4918 10.4159 26.3725 10.1317C26.2533 9.84735 26.0764 9.5906 25.8529 9.37745C25.6294 9.1643 25.3642 8.99932 25.0737 8.89286C24.7833 8.78639 24.4739 8.74072 24.1648 8.7587C23.8558 8.77668 23.5539 8.85792 23.2779 8.99734C23.0018 9.13676 22.7577 9.33136 22.5607 9.56898L13.8757 18.5263C13.479 18.9358 13.2537 19.4803 13.2457 20.0491Z" fill="#212121"/>
</svg>
