<svg width="16" height="16" viewBox="0 0 16 16" fill="none" xmlns="http://www.w3.org/2000/svg">
<path d="M2.3337 14.1887H2.80154V2.69497C2.80154 1.93141 3.4231 1.30987 4.18666 1.30987H8.92686H12.6963V0.88381C12.6963 0.395906 12.3003 -6.67572e-05 11.8124 -6.67572e-05H7.07389H2.33538C1.84749 -6.67572e-05 1.45152 0.395906 1.45152 0.88381V13.3048C1.4515 13.7927 1.84582 14.1887 2.3337 14.1887Z" fill="#959595"/>
<path d="M8.92713 1.81121H4.18861C3.70072 1.81121 3.30473 2.20718 3.30473 2.69505V14.1888V15.1161C3.30473 15.604 3.70072 16 4.18861 16H8.92713H10.5027V15.7076C10.4994 15.6775 10.4977 15.6458 10.4977 15.614V13.6876V13.193C10.4977 12.5063 11.0558 11.9482 11.7425 11.9482H12.2371H14.1636C14.1886 11.9482 14.2154 11.9499 14.2404 11.9515H14.5479V2.69505C14.5479 2.20718 14.1519 1.81121 13.664 1.81121H12.6949H8.92713ZM8.74835 4.81537H11.8377C12.0683 4.81537 12.2555 5.00252 12.2555 5.23308C12.2555 5.46368 12.0683 5.65079 11.8377 5.65079H8.74668C8.5161 5.65079 8.32896 5.46368 8.32896 5.23308C8.32896 5.00252 8.51777 4.81537 8.74835 4.81537ZM5.65728 6.94735H11.8377C12.0683 6.94735 12.2555 7.1345 12.2555 7.36506C12.2555 7.59566 12.0683 7.78277 11.8377 7.78277H5.65728C5.42671 7.78277 5.23957 7.59566 5.23957 7.36506C5.23957 7.1345 5.42671 6.94735 5.65728 6.94735ZM11.8377 10.0468H5.65728C5.42671 10.0468 5.23957 9.85965 5.23957 9.62907C5.23957 9.3985 5.42671 9.21136 5.65728 9.21136H11.8377C12.0683 9.21136 12.2555 9.3985 12.2555 9.62907C12.2555 9.85965 12.0683 10.0468 11.8377 10.0468Z" fill="#959595"/>
<path d="M14.1636 12.4494H11.7426C11.7409 12.4494 11.7375 12.4494 11.7359 12.4494C11.3315 12.4527 11.004 12.7802 11.0007 13.1846C11.0007 13.1862 11.0007 13.1896 11.0007 13.1913V15.614C11.0007 15.8379 11.1845 15.9866 11.375 15.9866C11.4668 15.9866 11.5587 15.9532 11.6356 15.8763L14.4276 13.0843C14.6615 12.8504 14.4961 12.4494 14.1636 12.4494Z" fill="#959595"/>
</svg>
