<svg width="35" height="49" viewBox="0 0 35 49" fill="none" xmlns="http://www.w3.org/2000/svg">
<path d="M34 0.5V48.5" stroke="#C4C4C4"/>
<path d="M2.33419 32.1887H2.80203V20.695C2.80203 19.9314 3.42358 19.3099 4.18714 19.3099H8.92735H12.6968V18.8838C12.6968 18.3959 12.3008 17.9999 11.8129 17.9999H7.07438H2.33586C1.84798 17.9999 1.452 18.3959 1.452 18.8838V31.3048C1.45199 31.7927 1.84631 32.1887 2.33419 32.1887Z" fill="#959595"/>
<path d="M8.92713 19.8112H4.18861C3.70072 19.8112 3.30473 20.2072 3.30473 20.6951V32.1888V33.1161C3.30473 33.604 3.70072 34 4.18861 34H8.92713H10.5027V33.7076C10.4994 33.6775 10.4977 33.6458 10.4977 33.614V31.6876V31.193C10.4977 30.5063 11.0558 29.9482 11.7425 29.9482H12.2371H14.1636C14.1886 29.9482 14.2154 29.9499 14.2404 29.9515H14.5479V20.6951C14.5479 20.2072 14.1519 19.8112 13.664 19.8112H12.6949H8.92713ZM8.74835 22.8154H11.8377C12.0683 22.8154 12.2555 23.0025 12.2555 23.2331C12.2555 23.4637 12.0683 23.6508 11.8377 23.6508H8.74668C8.5161 23.6508 8.32896 23.4637 8.32896 23.2331C8.32896 23.0025 8.51777 22.8154 8.74835 22.8154ZM5.65728 24.9474H11.8377C12.0683 24.9474 12.2555 25.1345 12.2555 25.3651C12.2555 25.5957 12.0683 25.7828 11.8377 25.7828H5.65728C5.42671 25.7828 5.23957 25.5957 5.23957 25.3651C5.23957 25.1345 5.42671 24.9474 5.65728 24.9474ZM11.8377 28.0468H5.65728C5.42671 28.0468 5.23957 27.8596 5.23957 27.6291C5.23957 27.3985 5.42671 27.2114 5.65728 27.2114H11.8377C12.0683 27.2114 12.2555 27.3985 12.2555 27.6291C12.2555 27.8596 12.0683 28.0468 11.8377 28.0468Z" fill="#959595"/>
<path d="M14.1636 30.4494H11.7426C11.7409 30.4494 11.7375 30.4494 11.7359 30.4494C11.3315 30.4527 11.004 30.7802 11.0007 31.1846C11.0007 31.1862 11.0007 31.1896 11.0007 31.1913V33.614C11.0007 33.8379 11.1845 33.9866 11.375 33.9866C11.4668 33.9866 11.5587 33.9532 11.6356 33.8763L14.4276 31.0843C14.6615 30.8504 14.4961 30.4494 14.1636 30.4494Z" fill="#959595"/>
</svg>
