<svg width="43" height="42" viewBox="0 0 43 42" fill="none" xmlns="http://www.w3.org/2000/svg">
<circle cx="24" cy="19" r="19" fill="#48A9CF"/>
<path d="M21.9328 17.9478H25.4872C25.7925 17.9478 26.04 18.1953 26.04 18.5005C26.04 18.8058 25.7925 19.0533 25.4872 19.0533H21.9328C21.6275 19.0533 21.38 18.8058 21.38 18.5005C21.38 18.1953 21.6275 17.9478 21.9328 17.9478Z" fill="black"/>
<path d="M21.9328 22.7188H25.4872C25.7925 22.7188 26.04 22.9663 26.04 23.2715C26.04 23.5768 25.7925 23.8243 25.4872 23.8243H21.9328C21.6275 23.8243 21.38 23.5768 21.38 23.2715C21.38 22.9663 21.6275 22.7188 21.9328 22.7188Z" fill="black"/>
<path d="M21.9328 27.5059H25.4872C25.7925 27.5059 26.04 27.7534 26.04 28.0587C26.04 28.3639 25.7925 28.6114 25.4872 28.6114H21.9328C21.6275 28.6114 21.38 28.3639 21.38 28.0587C21.38 27.7534 21.6275 27.5059 21.9328 27.5059Z" fill="black"/>
<path d="M21.9328 32.3208H25.4872C25.7925 32.3208 26.04 32.5683 26.04 32.8736C26.04 33.1789 25.7925 33.4264 25.4872 33.4264H21.9328C21.6275 33.4264 21.38 33.1789 21.38 32.8736C21.38 32.5683 21.6275 32.3208 21.9328 32.3208Z" fill="black"/>
<path d="M13.5033 19.8991L16.7371 18.4177C17.0149 18.2909 17.3428 18.4135 17.4695 18.6913C17.5963 18.9691 17.4738 19.297 17.1959 19.4237L13.9621 20.9052C13.6842 21.032 13.3564 20.9094 13.2296 20.6316C13.103 20.3537 13.2255 20.0259 13.5033 19.8991Z" fill="black"/>
<path d="M2.50244 21.1763L4.31006 19.0536C4.88117 18.3476 5.70731 17.8948 6.60968 17.7933C7.49788 17.756 8.36265 18.0835 9.00327 18.6998L10.2581 19.8054L9.77717 18.7606C9.06407 17.1962 9.48972 16.1128 9.97618 15.4771C10.3553 14.9965 10.8471 14.6168 11.4079 14.3715L13.9176 13.1885C15.3714 12.5252 17.2896 12.6025 18.3067 14.8469L19.0088 16.3781V15.3167C19.0088 12.8734 20.7169 12 22.3255 12H25.0895C26.6926 12 28.4062 12.8679 28.4062 15.3167V38.6833C28.4062 41.1266 26.6981 42 25.0895 42H22.3255C20.5234 42 19.5616 41.0713 19.2078 39.9381L2.84517 25.8198C2.14706 25.2818 1.69647 24.4842 1.59586 23.6086C1.56988 22.7108 1.89512 21.8382 2.50244 21.1763ZM20.1144 38.6833C20.1144 39.5069 20.4018 40.8944 22.3255 40.8944H25.0895C25.9132 40.8944 27.3007 40.607 27.3007 38.6833V15.3167C27.3007 13.3986 25.9187 13.1056 25.0895 13.1056H22.3255C21.5019 13.1056 20.1144 13.393 20.1144 15.3167V38.6833ZM17.4776 28.5837L19.0088 27.8983V23.8629L15.9574 25.2559C15.6795 25.3827 15.3517 25.2602 15.2249 24.9823C15.0982 24.7045 15.2207 24.3766 15.4986 24.2499L18.7324 22.7739C18.8197 22.7376 18.9149 22.7242 19.0088 22.7352V19.0149L17.3007 15.2946C16.5046 13.5478 15.1282 13.8629 14.3764 14.1891L11.8501 15.3444C11.4545 15.5154 11.1071 15.7812 10.8385 16.1183C10.3888 16.7569 10.3605 17.6014 10.7667 18.2687L16.2283 30.209L18.9922 36.2897V29.1034L17.9364 29.5898C17.6585 29.7166 17.3307 29.594 17.2039 29.3162C17.0773 29.0384 17.1998 28.7105 17.4776 28.5837ZM3.5638 24.9795L18.5223 37.8872L15.576 31.4472L14.8131 32.3206C14.622 32.5587 14.2741 32.5968 14.036 32.4058C13.7979 32.2147 13.7598 31.8667 13.9509 31.6287C13.963 31.6136 13.9759 31.5992 13.9894 31.5854L15.095 30.3748L13.3924 26.66L11.2144 29.1863C11.0114 29.4229 10.655 29.4501 10.4184 29.2471C10.1818 29.0441 10.1546 28.6877 10.3576 28.4511L12.6904 25.7479C12.7508 25.6809 12.8267 25.6296 12.9115 25.5987L11.3526 22.1935L8.26805 19.5345C7.84669 19.1166 7.27503 18.8855 6.68154 18.8933C6.08052 18.9757 5.53526 19.289 5.16136 19.7667L3.34821 21.8729C2.93092 22.3237 2.70158 22.9169 2.70697 23.5312C2.79058 24.1081 3.09848 24.6286 3.5638 24.9795Z" fill="black"/>
<path d="M6.73099 25.3113L9.05272 22.6192C9.25981 22.3949 9.60952 22.3809 9.83388 22.588C10.0485 22.7861 10.0719 23.117 9.88744 23.3434L7.56571 26.0355C7.35862 26.2599 7.00891 26.2738 6.78455 26.0667C6.56999 25.8686 6.5465 25.5378 6.73099 25.3113Z" fill="black"/>
<path d="M23.7071 35.7534C24.7696 35.7534 25.6309 36.6147 25.6309 37.6771C25.6309 38.7396 24.7696 39.6008 23.7071 39.6008C22.6447 39.6008 21.7834 38.7396 21.7834 37.6771C21.7834 36.6147 22.6447 35.7534 23.7071 35.7534ZM23.7071 38.4953V38.5174C24.159 38.5174 24.5253 38.1511 24.5253 37.6992C24.5253 37.2474 24.159 36.8811 23.7071 36.8811C23.2553 36.8811 22.889 37.2474 22.889 37.6992C22.901 38.1424 23.2638 38.4954 23.7071 38.4953Z" fill="black"/>
</svg>
