<svg width="41" height="42" viewBox="0 0 41 42" fill="none" xmlns="http://www.w3.org/2000/svg">
<circle cx="22" cy="19" r="19" fill="#48A9CF"/>
<path d="M18.1967 38.4685C17.947 38.5307 17.6925 38.586 17.4398 38.6325C16.7793 38.7553 16.3427 39.3906 16.4648 40.0516C16.5252 40.3769 16.7099 40.6478 16.9606 40.8246C17.2191 41.0065 17.548 41.0886 17.8832 41.0263C18.1841 40.9704 18.4874 40.9048 18.7849 40.8305C19.4372 40.6682 19.8345 40.0074 19.6718 39.3555C19.5095 38.7031 18.8493 38.306 18.1967 38.4685Z" fill="black"/>
<path d="M27.1989 22.1534C27.2842 22.4104 27.447 22.6201 27.6526 22.7651C27.9575 22.9798 28.3564 23.052 28.737 22.9262C29.3753 22.7143 29.7211 22.026 29.5099 21.3881C29.4137 21.0973 29.307 20.8056 29.1933 20.5216C28.9436 19.8974 28.2356 19.5935 27.6111 19.8432C26.9873 20.0927 26.6833 20.8009 26.9331 21.4253C27.0287 21.664 27.1182 21.9091 27.1989 22.1534Z" fill="black"/>
<path d="M22.1525 36.7307C21.9378 36.8724 21.7162 37.0096 21.493 37.1382C20.9105 37.4742 20.711 38.2187 21.0469 38.8009C21.138 38.9592 21.2595 39.0887 21.3994 39.1876C21.7748 39.4518 22.2848 39.4914 22.7093 39.2468C22.9748 39.0937 23.2387 38.9308 23.4944 38.7617C24.055 38.3913 24.2094 37.6362 23.8388 37.0752C23.4682 36.5141 22.7134 36.36 22.1525 36.7307Z" fill="black"/>
<path d="M30.2674 25.5532C30.2409 24.8814 29.675 24.3585 29.003 24.3847C28.3319 24.4112 27.8086 24.9773 27.8349 25.6488C27.845 25.9056 27.8476 26.1662 27.8417 26.4227C27.8323 26.844 28.0383 27.2195 28.3586 27.4452C28.5493 27.5796 28.7808 27.6609 29.0319 27.6666C29.7037 27.6815 30.2604 27.1487 30.2753 26.4765C30.282 26.17 30.2795 25.8595 30.2674 25.5532Z" fill="black"/>
<path d="M26.9989 33.5281C26.4602 33.1239 25.698 33.2336 25.2946 33.7714C25.1401 33.9773 24.9773 34.1807 24.8107 34.3765C24.3753 34.8881 24.4368 35.6565 24.9484 36.0923C24.9775 36.117 25.007 36.1397 25.0376 36.1611C25.5462 36.5196 26.253 36.4372 26.6642 35.9547C26.8632 35.721 27.0571 35.478 27.2418 35.2321C27.6453 34.6944 27.5361 33.9317 26.9989 33.5281Z" fill="black"/>
<path d="M28.7894 29.1278C28.148 28.9267 27.4649 29.2838 27.2639 29.9252C27.187 30.1702 27.1017 30.4165 27.0097 30.6576C26.8076 31.1884 27.0012 31.7725 27.4451 32.0855C27.5265 32.1427 27.6162 32.1912 27.7137 32.2281C28.3417 32.4677 29.0449 32.1526 29.2843 31.5244C29.3936 31.2377 29.495 30.9447 29.5867 30.6534C29.7875 30.0118 29.4307 29.329 28.7894 29.1278Z" fill="black"/>
<path d="M12.8868 38.6427C11.7986 38.4474 10.7547 38.1146 9.76482 37.6506C9.7531 37.6445 9.74262 37.6375 9.73032 37.6319C9.49706 37.5221 9.26418 37.4045 9.03846 37.2816C9.03768 37.2807 9.03625 37.2801 9.03501 37.2796C8.62087 37.0515 8.21669 36.7992 7.82403 36.5228C2.09833 32.4894 0.721643 24.5498 4.75525 18.8241C5.63234 17.5796 6.69376 16.5413 7.87708 15.7183C7.89166 15.7082 7.90624 15.6981 7.92068 15.6879C12.0905 12.8147 17.7525 12.6211 22.1802 15.5735L21.2292 16.9475C20.9649 17.33 21.1275 17.6087 21.5903 17.567L25.7211 17.1972C26.1845 17.1555 26.4617 16.7547 26.337 16.3072L25.2278 12.3105C25.1036 11.8625 24.7856 11.8088 24.521 12.1912L23.5678 13.5685C20.3185 11.3873 16.4212 10.5556 12.553 11.2263C12.1634 11.2938 11.7793 11.3763 11.4004 11.4723C11.3975 11.4729 11.3951 11.4732 11.3928 11.4737C11.3782 11.4773 11.3633 11.482 11.3491 11.486C8.01343 12.3426 5.10313 14.2881 3.02645 17.0638C3.00894 17.0846 2.99091 17.1049 2.97438 17.1275C2.90533 17.2205 2.83679 17.3157 2.76969 17.4108C2.65995 17.5668 2.55178 17.7266 2.4483 17.8865C2.43534 17.9057 2.42545 17.9253 2.41413 17.9448C0.700425 20.6003 -0.12616 23.6704 0.0155958 26.7959C0.0159213 26.8062 0.0153355 26.8166 0.0155958 26.8271C0.0293289 27.1324 0.0535407 27.442 0.0864089 27.7467C0.0881662 27.7664 0.0925269 27.785 0.0958463 27.8046C0.129821 28.1111 0.172452 28.4182 0.225887 28.7253C0.76896 31.8584 2.24692 34.6777 4.46159 36.8714C4.46673 36.8765 4.47206 36.8821 4.47727 36.8875C4.47909 36.8895 4.48111 36.8905 4.48287 36.8924C5.07788 37.4793 5.72509 38.0221 6.42196 38.5129C8.24566 39.7979 10.2764 40.6474 12.4573 41.0387C13.119 41.1576 13.7511 40.7171 13.8698 40.0557C13.9885 39.3939 13.5484 38.7613 12.8868 38.6427Z" fill="black"/>
<path d="M14.3924 16.3057C13.8481 16.3057 13.4072 16.7469 13.4072 17.2905V27.1019L22.3806 31.7406C22.525 31.8154 22.6796 31.8506 22.8318 31.8506C23.1882 31.8506 23.5324 31.6565 23.7075 31.3179C23.9571 30.8346 23.7682 30.2408 23.2849 29.9912L15.3765 25.9026V17.2905C15.3765 16.7469 14.9361 16.3057 14.3924 16.3057Z" fill="black"/>
</svg>
