<svg width="44" height="44" viewBox="0 0 44 44" fill="none" xmlns="http://www.w3.org/2000/svg">
<circle cx="25" cy="19" r="19" fill="#48A9CF"/>
<path d="M20.0351 6C19.7528 6 19.4888 6.13899 19.329 6.37175C18.862 7.05186 7.8916 23.1224 7.8916 31.2505C7.8916 37.9464 13.3391 43.3939 20.035 43.3939C26.7309 43.3939 32.1783 37.9464 32.1783 31.2505C32.1783 23.1224 21.208 7.05186 20.7411 6.37175C20.5815 6.13911 20.3173 6 20.0351 6ZM20.0351 41.6808C14.2838 41.6808 9.60484 37.0018 9.60484 31.2505C9.60484 24.7856 17.5848 12.1329 20.0351 8.40054C22.4855 12.1329 30.4653 24.7855 30.4653 31.2505C30.4653 37.0018 25.7863 41.6808 20.0351 41.6808Z" fill="black"/>
<path d="M19.1787 38.5402C19.1787 39.0133 19.5621 39.3968 20.0353 39.3968C24.5271 39.3968 28.1815 35.7426 28.1815 31.2511C28.1815 30.778 27.7981 30.3945 27.325 30.3945C26.8518 30.3945 26.4684 30.778 26.4684 31.2511C26.4684 34.7981 23.5825 37.6836 20.0353 37.6836C19.5621 37.6836 19.1787 38.0672 19.1787 38.5402Z" fill="black"/>
<path d="M36.8304 9.46841H35.1659V7.80383C35.1659 7.33078 34.7825 6.94727 34.3093 6.94727C33.8362 6.94727 33.4528 7.33078 33.4528 7.80383V9.46841H31.7882C31.315 9.46841 30.9316 9.85192 30.9316 10.325C30.9316 10.798 31.315 11.1815 31.7882 11.1815H33.4528V12.8461C33.4528 13.3192 33.8362 13.7027 34.3093 13.7027C34.7825 13.7027 35.1659 13.3192 35.1659 12.8461V11.1815H36.8304C37.3035 11.1815 37.6869 10.798 37.6869 10.325C37.6869 9.85192 37.3035 9.46841 36.8304 9.46841Z" fill="black"/>
<path d="M5.89885 35.2614H4.23427V33.5968C4.23427 33.1237 3.85087 32.7402 3.37771 32.7402C2.90454 32.7402 2.52115 33.1237 2.52115 33.5968V35.2614H0.856561C0.383397 35.2614 0 35.6449 0 36.1179C0 36.591 0.383397 36.9745 0.856561 36.9745H2.52115V38.6391C2.52115 39.1121 2.90454 39.4956 3.37771 39.4956C3.85087 39.4956 4.23427 39.1121 4.23427 38.6391V36.9745H5.89885C6.37202 36.9745 6.75541 36.591 6.75541 36.1179C6.75541 35.6449 6.37202 35.2614 5.89885 35.2614Z" fill="black"/>
</svg>
