<svg width="40" height="41" viewBox="0 0 40 41" fill="none" xmlns="http://www.w3.org/2000/svg">
<circle cx="21" cy="19" r="19" fill="#48A9CF"/>
<path d="M31.0655 34.1882L28.695 20.7704C28.2043 17.9932 25.8013 15.9775 22.9812 15.9775H19.6275C20.1346 15.2568 20.4335 14.3796 20.4335 13.4333C20.4336 10.9888 18.4447 9 16.0002 9C13.5557 9 11.5668 10.9888 11.5668 13.4334C11.5668 14.3796 11.8657 15.2568 12.3728 15.9776H9.01915C6.19903 15.9776 3.79597 17.9932 3.30528 20.7704L0.934778 34.1882C0.635591 35.8819 1.09797 37.6089 2.20322 38.9266C3.30853 40.2443 4.92878 41 6.64872 41H25.3517C27.0717 41 28.6919 40.2442 29.7972 38.9266C30.9025 37.6089 31.3647 35.8819 31.0655 34.1882ZM16.0002 10.8892C17.403 10.8892 18.5443 12.0305 18.5443 13.4334C18.5443 14.8362 17.403 15.9776 16.0002 15.9776C14.5973 15.9776 13.456 14.8362 13.456 13.4334C13.456 12.0305 14.5973 10.8892 16.0002 10.8892ZM28.3497 37.7125C27.6043 38.6012 26.5116 39.1108 25.3517 39.1108H6.64872C5.48884 39.1108 4.39609 38.6012 3.65072 37.7125C2.90534 36.8238 2.59347 35.6591 2.79528 34.5169L5.16578 21.0991C5.49672 19.2262 7.11734 17.8667 9.01922 17.8667H22.9813C24.8832 17.8667 26.5038 19.2261 26.8347 21.099L29.2052 34.5168C29.407 35.6591 29.095 36.8238 28.3497 37.7125Z" fill="black"/>
<path d="M12.8943 28.4888L15.2613 26.0429C15.6241 25.6681 15.6143 25.0701 15.2394 24.7073C14.8644 24.3443 14.2664 24.3543 13.9036 24.7292L11.2564 27.4646V25.386C11.2564 24.8643 10.8335 24.4414 10.3118 24.4414C9.79012 24.4414 9.36719 24.8643 9.36719 25.386V31.5917C9.36719 32.1134 9.79012 32.5363 10.3118 32.5363C10.8335 32.5363 11.2564 32.1134 11.2564 31.5917V29.5132L13.9036 32.2486C14.0889 32.4401 14.3356 32.5363 14.5826 32.5363C14.8191 32.5363 15.0559 32.448 15.2394 32.2705C15.6143 31.9077 15.624 31.3098 15.2613 30.9348L12.8943 28.4888Z" fill="black"/>
<path d="M21.6888 27.811H20.2708C19.7491 27.811 19.3262 28.234 19.3262 28.7557C19.3262 29.2773 19.7491 29.7003 20.2708 29.7003H20.7287C20.6387 30.2368 20.171 30.647 19.6091 30.647C18.9833 30.647 18.4741 30.1378 18.4741 29.512V27.4656C18.4741 26.8397 18.9833 26.3305 19.6091 26.3305C19.9613 26.3305 20.2877 26.49 20.5049 26.7683C20.8258 27.1794 21.4195 27.2527 21.8307 26.9317C22.2419 26.6106 22.3151 26.017 21.9942 25.6058C21.4165 24.8658 20.5472 24.4414 19.6092 24.4414C17.9416 24.4414 16.585 25.7981 16.585 27.4657V29.512C16.585 31.1796 17.9416 32.5363 19.6092 32.5363C21.2768 32.5363 22.6335 31.1796 22.6335 29.512V28.7558C22.6335 28.234 22.2105 27.811 21.6888 27.811Z" fill="black"/>
</svg>
