<svg width="25" height="25" viewBox="0 0 25 25" fill="none" xmlns="http://www.w3.org/2000/svg">
<path d="M22.6449 2.35554C19.5035 -0.785864 14.3923 -0.785815 11.2509 2.35559C9.10513 4.50134 8.35981 7.6635 9.28891 10.5324L0.215576 19.6058C0.0782226 19.7431 0.000976562 19.9291 0.000976562 20.1237V24.2671C0.000976562 24.6719 0.328564 24.9995 0.733398 24.9995H4.87685C5.07139 24.9995 5.25737 24.9223 5.39468 24.7849L6.43037 23.7485C6.58843 23.5905 6.66567 23.3687 6.63994 23.1463L6.51118 22.0333L8.05327 21.8881C8.40376 21.8552 8.68056 21.5784 8.71348 21.2279L8.85869 19.6858L9.97163 19.8153C10.1783 19.8431 10.3865 19.7738 10.5431 19.635C10.699 19.4956 10.7884 19.2967 10.7884 19.0879V17.7241H12.1274C12.3219 17.7241 12.5079 17.6469 12.6452 17.5095L14.5235 15.6561C17.3916 16.586 20.4991 15.8968 22.6449 13.7496C25.7863 10.6082 25.7863 5.49695 22.6449 2.35554ZM20.5728 7.53474C19.716 8.39163 18.3227 8.39163 17.4658 7.53474C16.6089 6.67786 16.6089 5.28455 17.4658 4.42766C18.3227 3.57078 19.716 3.57078 20.5728 4.42766C21.4297 5.28455 21.4297 6.67786 20.5728 7.53474Z" fill="#5F8806"/>
</svg>
