<svg width="803" height="16" viewBox="0 0 803 16" fill="none" xmlns="http://www.w3.org/2000/svg">
<path d="M1.29289 7.29289C0.902369 7.68342 0.902369 8.31658 1.29289 8.70711L7.65685 15.0711C8.04738 15.4616 8.68054 15.4616 9.07107 15.0711C9.46159 14.6805 9.46159 14.0474 9.07107 13.6569L3.41421 8L9.07107 2.34315C9.46159 1.95262 9.46159 1.31946 9.07107 0.928932C8.68054 0.538408 8.04738 0.538408 7.65685 0.928932L1.29289 7.29289ZM802.707 8.70711C803.098 8.31658 803.098 7.68342 802.707 7.29289L796.343 0.928932C795.953 0.538408 795.319 0.538408 794.929 0.928932C794.538 1.31946 794.538 1.95262 794.929 2.34315L800.586 8L794.929 13.6569C794.538 14.0474 794.538 14.6805 794.929 15.0711C795.319 15.4616 795.953 15.4616 796.343 15.0711L802.707 8.70711ZM2 9H802V7H2V9Z" fill="#C4C4C4"/>
<path d="M231 1L239 8L231 15" stroke="#C4C4C4" stroke-width="2" stroke-linecap="round"/>
</svg>
