<svg width="1174" height="17" viewBox="0 0 1174 17" fill="none" xmlns="http://www.w3.org/2000/svg">
<path d="M1.29289 8.29289C0.902369 8.68342 0.902369 9.31658 1.29289 9.70711L7.65685 16.0711C8.04738 16.4616 8.68054 16.4616 9.07107 16.0711C9.46159 15.6805 9.46159 15.0474 9.07107 14.6569L3.41421 9L9.07107 3.34315C9.46159 2.95262 9.46159 2.31946 9.07107 1.92893C8.68054 1.53841 8.04738 1.53841 7.65685 1.92893L1.29289 8.29289ZM1173.71 9.70711C1174.1 9.31658 1174.1 8.68342 1173.71 8.29289L1167.34 1.92893C1166.95 1.53841 1166.32 1.53841 1165.93 1.92893C1165.54 2.31946 1165.54 2.95262 1165.93 3.34315L1171.59 9L1165.93 14.6569C1165.54 15.0474 1165.54 15.6805 1165.93 16.0711C1166.32 16.4616 1166.95 16.4616 1167.34 16.0711L1173.71 9.70711ZM2 10H1173V8H2V10Z" fill="#C4C4C4"/>
<path d="M231 2L239 9L231 16" stroke="#C4C4C4" stroke-width="2" stroke-linecap="round"/>
<path d="M691 2L699 9L691 16" stroke="#C4C4C4" stroke-width="2" stroke-linecap="round"/>
</svg>
