<svg width="160" height="45" viewBox="0 0 160 45" fill="none" xmlns="http://www.w3.org/2000/svg">
<g clip-path="url(#clip0)">
<path d="M83.623 33.8276H75.5428V9.49658H64.3204V33.8276H56.2402V3.41382H83.623V33.8276ZM117.76 33.8276H109.68V9.49658H98.4578V33.8276H90.3776V3.41382H117.76V33.8276ZM151.449 16.8828L145.164 27.7449H138.879L132.595 16.8828V33.8276H124.515V3.41382H133.044L142.022 19.4897L151 3.41382H159.529V33.8276H151.449V16.8828Z" fill="white"/>
<path d="M62.3895 35.7566V42.8275H61.425V36.5709H57.567V42.8275H56.6025V35.7566H62.3895ZM64.5718 37.7031V38.428C64.9546 37.8387 65.5497 37.5442 66.3571 37.5442C67.0958 37.5442 67.6807 37.7859 68.1116 38.2691C68.5493 38.7523 68.7683 39.4078 68.7683 40.2355C68.7683 41.0632 68.5528 41.7251 68.1219 42.2217C67.6977 42.7117 67.1231 42.9566 66.3981 42.9566C65.6389 42.9566 65.047 42.6751 64.6231 42.1125V44.8038H63.7509V37.7031H64.5718ZM66.2237 38.2493C65.7174 38.2493 65.3172 38.428 65.0232 38.7856C64.7359 39.1366 64.5923 39.6232 64.5923 40.2454C64.5923 40.8677 64.7391 41.3577 65.0335 41.7152C65.3342 42.0662 65.7415 42.2416 66.2545 42.2416C66.7537 42.2416 67.1471 42.0628 67.4344 41.7053C67.7217 41.3478 67.8654 40.8611 67.8654 40.2454C67.8654 39.6232 67.7182 39.1366 67.4242 38.7856C67.1369 38.428 66.7367 38.2493 66.2237 38.2493ZM70.1512 38.289C70.6162 37.799 71.2491 37.5541 72.0494 37.5541C72.8498 37.5541 73.4721 37.789 73.9168 38.2592C74.3613 38.7294 74.5838 39.3879 74.5838 40.2355C74.5838 41.1029 74.3613 41.7782 73.9168 42.2614C73.4721 42.7446 72.8462 42.9864 72.0392 42.9864C71.2318 42.9864 70.5992 42.748 70.141 42.2713C69.6825 41.7947 69.4535 41.1327 69.4535 40.2851C69.4535 39.4444 69.686 38.779 70.1512 38.289ZM73.2397 38.8054C72.9453 38.4414 72.5419 38.2592 72.0289 38.2592C71.5159 38.2592 71.1087 38.4414 70.8079 38.8054C70.5068 39.1695 70.3564 39.6561 70.3564 40.2653C70.3564 40.8944 70.5033 41.3875 70.7976 41.745C71.0984 42.096 71.5159 42.2713 72.0494 42.2713C72.5625 42.2713 72.9626 42.0926 73.2499 41.7351C73.5439 41.3776 73.6911 40.8844 73.6911 40.2554C73.6911 39.6461 73.5404 39.1629 73.2397 38.8054ZM82.6611 40.1858C82.6611 40.6957 82.596 41.1491 82.4661 41.5464C82.3359 41.9436 82.1035 42.2779 81.7684 42.5494C81.4401 42.8141 81.0261 42.9467 80.5269 42.9467C80.3351 42.9467 80.1299 42.8936 79.9112 42.7878C79.6922 42.6819 79.5281 42.5659 79.4187 42.4402H79.3982V44.8038H78.5363V42.4402H78.5158C78.4061 42.5659 78.242 42.6819 78.0233 42.7878C77.8043 42.8936 77.5991 42.9467 77.4077 42.9467C76.9081 42.9467 76.491 42.8141 76.1559 42.5494C75.8275 42.2779 75.5983 41.9436 75.4684 41.5464C75.3383 41.1491 75.2735 40.6957 75.2735 40.1858C75.2735 39.378 75.4582 38.7424 75.8275 38.2791C76.1969 37.8089 76.6997 37.574 77.3358 37.574C77.5545 37.574 77.7771 37.6336 78.0028 37.7527C78.2352 37.8654 78.4029 37.9911 78.5055 38.1301H78.5363V35.7566H79.3982V38.1301H79.429C79.5316 37.9911 79.6958 37.8654 79.9215 37.7527C80.154 37.6336 80.3797 37.574 80.5987 37.574C81.2348 37.574 81.7376 37.8089 82.107 38.2791C82.4764 38.7424 82.6611 39.378 82.6611 40.1858ZM81.7581 40.2057C81.7581 39.6164 81.652 39.1496 81.4401 38.8054C81.2278 38.4544 80.9065 38.2791 80.4756 38.2791C80.2498 38.2791 80.0308 38.3352 79.8189 38.4479C79.6137 38.5606 79.4732 38.7424 79.3982 38.9941V41.5762C79.4322 41.7615 79.5451 41.9204 79.7368 42.0529C79.935 42.1786 80.1642 42.2416 80.4243 42.2416C80.6773 42.2416 80.8927 42.182 81.0707 42.0628C81.2554 41.9436 81.3955 41.7813 81.4914 41.5762C81.5869 41.3642 81.6555 41.1491 81.6966 40.9307C81.7376 40.7057 81.7581 40.4639 81.7581 40.2057ZM78.5363 41.5762V38.9941C78.461 38.7424 78.3173 38.5606 78.1054 38.4479C77.9002 38.3352 77.6847 38.2791 77.459 38.2791C77.028 38.2791 76.7064 38.4544 76.4945 38.8054C76.2822 39.1496 76.1764 39.6164 76.1764 40.2057C76.1764 40.4639 76.1969 40.7057 76.238 40.9307C76.279 41.1491 76.3473 41.3642 76.4432 41.5762C76.5387 41.7813 76.6756 41.9436 76.8536 42.0628C77.0383 42.182 77.257 42.2416 77.5103 42.2416C77.77 42.2416 77.9957 42.1786 78.1875 42.0529C78.3856 41.9204 78.502 41.7615 78.5363 41.5762ZM89.5641 35.7566V42.8275H88.5997V36.5709H84.7417V42.8275H83.7772V35.7566H89.5641ZM91.3463 38.289C91.8115 37.799 92.4441 37.5541 93.2445 37.5541C94.0448 37.5541 94.6672 37.789 95.1119 38.2592C95.5566 38.7294 95.7788 39.3879 95.7788 40.2355C95.7788 41.1029 95.5566 41.7782 95.1119 42.2614C94.6672 42.7446 94.0413 42.9864 93.2342 42.9864C92.4272 42.9864 91.7942 42.748 91.336 42.2713C90.8778 41.7947 90.6486 41.1327 90.6486 40.2851C90.6486 39.4444 90.881 38.779 91.3463 38.289ZM94.4347 38.8054C94.1407 38.4414 93.737 38.2592 93.2239 38.2592C92.7109 38.2592 92.304 38.4414 92.0029 38.8054C91.7019 39.1695 91.5515 39.6561 91.5515 40.2653C91.5515 40.8944 91.6987 41.3875 91.9927 41.745C92.2938 42.096 92.7109 42.2713 93.2445 42.2713C93.7575 42.2713 94.1577 42.0926 94.445 41.7351C94.739 41.3776 94.8861 40.8844 94.8861 40.2554C94.8861 39.6461 94.7358 39.1629 94.4347 38.8054ZM100.876 37.7031V42.8275H100.004V38.4479H98.1163L98.0445 40.7122C98.0239 41.4933 97.8768 42.0594 97.6033 42.4104C97.3294 42.7614 96.9876 42.9367 96.5772 42.9367C96.3239 42.9367 96.1155 42.9004 95.9513 42.8275V42.1422C96.0401 42.1885 96.194 42.2118 96.413 42.2118C96.6183 42.2118 96.7927 42.1059 96.9363 41.894C97.0867 41.6755 97.1688 41.3115 97.1826 40.8016L97.2749 37.7031H100.876ZM103.181 42.8275H102.063V37.7031H102.935V41.884H102.956L105.336 37.7031H106.455V42.8275H105.582V38.6465H105.562L103.181 42.8275ZM113.397 42.8275H112.525V38.7856H112.494L110.925 42.8275H110.124L108.554 38.7856H108.524V42.8275H107.652V37.7031H108.903L110.514 41.8542H110.535L112.146 37.7031H113.397V42.8275ZM119.108 41.2087C118.842 42.4005 118.072 42.9963 116.8 42.9963C116.02 42.9963 115.408 42.7614 114.963 42.2912C114.525 41.821 114.306 41.169 114.306 40.3348C114.306 39.5071 114.532 38.8386 114.984 38.3287C115.442 37.8123 116.037 37.5541 116.769 37.5541C117.583 37.5541 118.185 37.8222 118.575 38.3585C118.971 38.8883 119.17 39.5602 119.17 40.3745V40.4937H115.189L115.179 40.5533C115.179 41.0961 115.325 41.5231 115.62 41.8344C115.914 42.1457 116.317 42.3011 116.831 42.3011C117.213 42.3011 117.514 42.2152 117.733 42.0429C117.959 41.8707 118.134 41.5926 118.257 41.2087H119.108ZM118.267 39.8085C118.226 39.3184 118.072 38.9379 117.805 38.6664C117.538 38.3883 117.186 38.2493 116.748 38.2493C116.324 38.2493 115.972 38.3883 115.692 38.6664C115.411 38.9445 115.243 39.3252 115.189 39.8085H118.267ZM120.813 37.7031V38.428C121.196 37.8387 121.791 37.5442 122.598 37.5442C123.337 37.5442 123.922 37.7859 124.352 38.2691C124.79 38.7523 125.009 39.4078 125.009 40.2355C125.009 41.0632 124.794 41.7251 124.363 42.2217C123.938 42.7117 123.364 42.9566 122.639 42.9566C121.88 42.9566 121.288 42.6751 120.864 42.1125V44.8038H119.992V37.7031H120.813ZM122.465 38.2493C121.958 38.2493 121.558 38.428 121.264 38.7856C120.977 39.1366 120.833 39.6232 120.833 40.2454C120.833 40.8677 120.98 41.3577 121.274 41.7152C121.575 42.0662 121.982 42.2416 122.495 42.2416C122.995 42.2416 123.388 42.0628 123.675 41.7053C123.963 41.3478 124.106 40.8611 124.106 40.2454C124.106 39.6232 123.959 39.1366 123.665 38.7856C123.378 38.428 122.978 38.2493 122.465 38.2493ZM126.136 35.7566H127.469L129.819 41.745L132.087 35.7566H133.431V42.8275H132.518V36.9285L130.229 42.8275H129.388L127.059 36.9285V42.8275H126.136V35.7566ZM139.332 41.2087C139.065 42.4005 138.295 42.9963 137.023 42.9963C136.243 42.9963 135.631 42.7614 135.186 42.2912C134.748 41.821 134.53 41.169 134.53 40.3348C134.53 39.5071 134.755 38.8386 135.207 38.3287C135.665 37.8123 136.26 37.5541 136.992 37.5541C137.806 37.5541 138.408 37.8222 138.798 38.3585C139.195 38.8883 139.393 39.5602 139.393 40.3745V40.4937H135.412L135.402 40.5533C135.402 41.0961 135.549 41.5231 135.843 41.8344C136.137 42.1457 136.541 42.3011 137.054 42.3011C137.437 42.3011 137.738 42.2152 137.957 42.0429C138.182 41.8707 138.357 41.5926 138.48 41.2087H139.332ZM138.49 39.8085C138.449 39.3184 138.295 38.9379 138.028 38.6664C137.762 38.3883 137.409 38.2493 136.972 38.2493C136.547 38.2493 136.195 38.3883 135.915 38.6664C135.634 38.9445 135.467 39.3252 135.412 39.8085H138.49ZM144.088 38.4479H142.189V42.8275H141.317V38.4479H139.419V37.7031H144.088V38.4479ZM149.19 42.1522V42.8076C149.012 42.8737 148.814 42.9069 148.595 42.9069C148.096 42.9069 147.839 42.6552 147.826 42.1522C147.326 42.695 146.687 42.9665 145.907 42.9665C145.387 42.9665 144.973 42.8374 144.665 42.5792C144.364 42.321 144.214 41.9669 144.214 41.5166C144.214 40.6029 144.84 40.0701 146.092 39.9177C146.174 39.9043 146.293 39.8913 146.451 39.878C147.046 39.8119 147.412 39.7355 147.549 39.6496C147.706 39.5437 147.785 39.3616 147.785 39.1034C147.785 38.5407 147.384 38.2592 146.584 38.2592C146.174 38.2592 145.862 38.3421 145.65 38.5075C145.438 38.6664 145.312 38.9311 145.271 39.302H144.419C144.433 38.7523 144.635 38.3253 145.025 38.0209C145.414 37.7164 145.951 37.564 146.635 37.564C147.381 37.564 147.935 37.7295 148.298 38.0606C148.414 38.1664 148.499 38.3055 148.554 38.4777C148.609 38.6499 148.639 38.7921 148.646 38.9047C148.653 39.0106 148.657 39.1729 148.657 39.3914C148.657 39.643 148.65 40.0235 148.636 40.5334C148.622 41.0433 148.616 41.4238 148.616 41.6755C148.616 41.8608 148.639 41.9933 148.688 42.0727C148.742 42.1457 148.838 42.182 148.975 42.182C149.029 42.182 149.101 42.172 149.19 42.1522ZM147.785 40.166C147.723 40.2122 147.658 40.2519 147.59 40.2851C147.521 40.3183 147.432 40.3447 147.323 40.3646C147.22 40.3845 147.148 40.4009 147.107 40.4142C147.073 40.4208 146.984 40.4341 146.841 40.454C146.697 40.4673 146.622 40.4738 146.615 40.4738C146.403 40.5002 146.263 40.5201 146.194 40.5334C146.133 40.5399 146.01 40.5666 145.825 40.6129C145.647 40.6591 145.52 40.7122 145.445 40.7718C145.37 40.8314 145.294 40.9207 145.219 41.0399C145.151 41.1526 145.117 41.2882 145.117 41.4471C145.117 41.7118 145.209 41.9203 145.394 42.0727C145.585 42.2251 145.845 42.3011 146.174 42.3011C146.591 42.3011 146.964 42.182 147.292 41.9436C147.62 41.7053 147.785 41.4238 147.785 41.0995V40.166ZM154.322 37.7031V42.8275H153.449V38.4479H151.561L151.49 40.7122C151.469 41.4933 151.322 42.0594 151.048 42.4104C150.775 42.7614 150.433 42.9367 150.022 42.9367C149.769 42.9367 149.561 42.9004 149.396 42.8275V42.1422C149.486 42.1885 149.64 42.2118 149.858 42.2118C150.063 42.2118 150.238 42.1059 150.381 41.894C150.532 41.6755 150.614 41.3115 150.628 40.8016L150.72 37.7031H154.322ZM159.921 37.7031V42.8275H159.048V38.4479H157.16L157.089 40.7122C157.068 41.4933 156.921 42.0594 156.647 42.4104C156.374 42.7614 156.032 42.9367 155.621 42.9367C155.368 42.9367 155.16 42.9004 154.995 42.8275V42.1422C155.084 42.1885 155.238 42.2118 155.457 42.2118C155.662 42.2118 155.837 42.1059 155.98 41.894C156.131 41.6755 156.213 41.3115 156.227 40.8016L156.319 37.7031H159.921Z" fill="white"/>
<path d="M8.11315 10.2904V29.3466H3.45632C1.57115 29.3466 0.186613 27.3457 0.0875329 25.7259C0.0214786 19.088 -0.0709976 5.27859 0.0875329 3.14429C0.246064 1.00998 2.39944 0.158802 3.45632 0H26.9386C29.3166 0 30.3735 2.09619 30.6047 3.14429V7.43195C25.2213 7.40017 13.8202 7.3557 11.2838 7.43195C8.74725 7.50817 8.11315 9.36931 8.11315 10.2904Z" fill="white"/>
<path d="M37.7386 33.1578V14.1016H42.3956C44.2806 14.1016 45.6652 16.1025 45.7642 17.7223C45.8303 24.3602 45.9226 38.1695 45.7642 40.3038C45.6058 42.4383 43.4524 43.2893 42.3956 43.4482H18.9131C16.5352 43.4482 15.4783 41.3521 15.2471 40.3038V36.0164C20.6305 36.048 32.0315 36.0924 34.5681 36.0164C37.1044 35.94 37.7386 34.0789 37.7386 33.1578Z" fill="white"/>
<path d="M14.8506 17.4365V29.3467H26.8395C29.911 29.3467 30.9018 26.5835 31.0009 25.5354V14.2922H18.9129C16.0594 14.2922 14.9497 16.3884 14.8506 17.4365Z" fill="white"/>
</g>
<defs>
<clipPath id="clip0">
<rect width="160" height="45" fill="white"/>
</clipPath>
</defs>
</svg>
