<svg width="173" height="37" viewBox="0 0 173 37" fill="none" xmlns="http://www.w3.org/2000/svg">
<path d="M67.548 12.234C67.436 13.494 66.9973 14.4787 66.232 15.188C65.476 15.888 64.4773 16.238 63.236 16.238C61.8173 16.238 60.6927 15.7713 59.862 14.838C59.0313 13.8953 58.616 12.626 58.616 11.03C58.616 9.53667 59.0313 8.29533 59.862 7.306C60.702 6.30733 61.8593 5.808 63.334 5.808C64.3887 5.808 65.3173 6.09267 66.12 6.662C66.9227 7.23133 67.3707 8.02 67.464 9.028H66.148C65.9987 8.37467 65.672 7.866 65.168 7.502C64.664 7.12867 64.0433 6.942 63.306 6.942C62.1953 6.942 61.3553 7.334 60.786 8.118C60.226 8.902 59.946 9.868 59.946 11.016C59.946 12.2853 60.2447 13.284 60.842 14.012C61.4393 14.74 62.256 15.104 63.292 15.104C64.1413 15.104 64.818 14.8613 65.322 14.376C65.826 13.8813 66.1293 13.1673 66.232 12.234H67.548ZM75.3975 15.048V15.972C75.1548 16.0653 74.8842 16.112 74.5855 16.112C73.9042 16.112 73.5542 15.7573 73.5355 15.048C72.8542 15.8133 71.9815 16.196 70.9175 16.196C70.2082 16.196 69.6435 16.014 69.2235 15.65C68.8128 15.286 68.6075 14.7867 68.6075 14.152C68.6075 12.864 69.4615 12.1127 71.1695 11.898C71.2815 11.8793 71.4448 11.8607 71.6595 11.842C72.4715 11.7487 72.9708 11.6413 73.1575 11.52C73.3722 11.3707 73.4795 11.114 73.4795 10.75C73.4795 9.95667 72.9335 9.56 71.8415 9.56C71.2815 9.56 70.8568 9.67667 70.5675 9.91C70.2782 10.134 70.1055 10.5073 70.0495 11.03H68.8875C68.9062 10.2553 69.1815 9.65333 69.7135 9.224C70.2455 8.79467 70.9782 8.58 71.9115 8.58C72.9288 8.58 73.6848 8.81333 74.1795 9.28C74.3382 9.42933 74.4548 9.62533 74.5295 9.868C74.6042 10.1107 74.6462 10.3113 74.6555 10.47C74.6648 10.6193 74.6695 10.848 74.6695 11.156C74.6695 11.5107 74.6602 12.0473 74.6415 12.766C74.6228 13.4847 74.6135 14.0213 74.6135 14.376C74.6135 14.6373 74.6462 14.824 74.7115 14.936C74.7862 15.0387 74.9168 15.09 75.1035 15.09C75.1782 15.09 75.2762 15.076 75.3975 15.048ZM73.4795 12.248C73.3955 12.3133 73.3068 12.3693 73.2135 12.416C73.1202 12.4627 72.9988 12.5 72.8495 12.528C72.7095 12.556 72.6115 12.5793 72.5555 12.598C72.5088 12.6073 72.3875 12.626 72.1915 12.654C71.9955 12.6727 71.8928 12.682 71.8835 12.682C71.5942 12.7193 71.4028 12.7473 71.3095 12.766C71.2255 12.7753 71.0575 12.8127 70.8055 12.878C70.5628 12.9433 70.3902 13.018 70.2875 13.102C70.1848 13.186 70.0822 13.312 69.9795 13.48C69.8862 13.6387 69.8395 13.83 69.8395 14.054C69.8395 14.4273 69.9655 14.7213 70.2175 14.936C70.4788 15.1507 70.8335 15.258 71.2815 15.258C71.8508 15.258 72.3595 15.09 72.8075 14.754C73.2555 14.418 73.4795 14.0213 73.4795 13.564V12.248ZM81.629 6.032C81.5357 6.62 81.307 7.09133 80.943 7.446C80.5884 7.79133 80.117 7.964 79.529 7.964C78.9597 7.964 78.479 7.78667 78.087 7.432C77.7044 7.068 77.4757 6.60133 77.401 6.032H78.115C78.3297 6.76 78.7964 7.124 79.515 7.124C80.2057 7.124 80.6724 6.76 80.915 6.032H81.629ZM78.045 16H76.519V8.776H77.709V14.67H77.737L80.985 8.776H82.511V16H81.321V10.106H81.293L78.045 16ZM89.8283 9.826H87.2383V16H86.0483V9.826H83.4583V8.776H89.8283V9.826ZM95.7953 8.776V9.798C96.318 8.96733 97.13 8.552 98.2313 8.552C99.2393 8.552 100.037 8.89267 100.625 9.574C101.223 10.2553 101.521 11.1793 101.521 12.346C101.521 13.5127 101.227 14.446 100.639 15.146C100.061 15.8367 99.2766 16.182 98.2873 16.182C97.2513 16.182 96.444 15.7853 95.8653 14.992V18.786H94.6753V8.776H95.7953ZM98.0493 9.546C97.3586 9.546 96.8126 9.798 96.4113 10.302C96.0193 10.7967 95.8233 11.4827 95.8233 12.36C95.8233 13.2373 96.024 13.928 96.4253 14.432C96.836 14.9267 97.3913 15.174 98.0913 15.174C98.7726 15.174 99.3093 14.922 99.7013 14.418C100.093 13.914 100.289 13.228 100.289 12.36C100.289 11.4827 100.089 10.7967 99.6873 10.302C99.2953 9.798 98.7493 9.546 98.0493 9.546ZM109.372 15.048V15.972C109.129 16.0653 108.859 16.112 108.56 16.112C107.879 16.112 107.529 15.7573 107.51 15.048C106.829 15.8133 105.956 16.196 104.892 16.196C104.183 16.196 103.618 16.014 103.198 15.65C102.787 15.286 102.582 14.7867 102.582 14.152C102.582 12.864 103.436 12.1127 105.144 11.898C105.256 11.8793 105.419 11.8607 105.634 11.842C106.446 11.7487 106.945 11.6413 107.132 11.52C107.347 11.3707 107.454 11.114 107.454 10.75C107.454 9.95667 106.908 9.56 105.816 9.56C105.256 9.56 104.831 9.67667 104.542 9.91C104.253 10.134 104.08 10.5073 104.024 11.03H102.862C102.881 10.2553 103.156 9.65333 103.688 9.224C104.22 8.79467 104.953 8.58 105.886 8.58C106.903 8.58 107.659 8.81333 108.154 9.28C108.313 9.42933 108.429 9.62533 108.504 9.868C108.579 10.1107 108.621 10.3113 108.63 10.47C108.639 10.6193 108.644 10.848 108.644 11.156C108.644 11.5107 108.635 12.0473 108.616 12.766C108.597 13.4847 108.588 14.0213 108.588 14.376C108.588 14.6373 108.621 14.824 108.686 14.936C108.761 15.0387 108.891 15.09 109.078 15.09C109.153 15.09 109.251 15.076 109.372 15.048ZM107.454 12.248C107.37 12.3133 107.281 12.3693 107.188 12.416C107.095 12.4627 106.973 12.5 106.824 12.528C106.684 12.556 106.586 12.5793 106.53 12.598C106.483 12.6073 106.362 12.626 106.166 12.654C105.97 12.6727 105.867 12.682 105.858 12.682C105.569 12.7193 105.377 12.7473 105.284 12.766C105.2 12.7753 105.032 12.8127 104.78 12.878C104.537 12.9433 104.365 13.018 104.262 13.102C104.159 13.186 104.057 13.312 103.954 13.48C103.861 13.6387 103.814 13.83 103.814 14.054C103.814 14.4273 103.94 14.7213 104.192 14.936C104.453 15.1507 104.808 15.258 105.256 15.258C105.825 15.258 106.334 15.09 106.782 14.754C107.23 14.418 107.454 14.0213 107.454 13.564V12.248ZM110.088 10.862C110.144 10.0407 110.456 9.45267 111.026 9.098C111.595 8.74333 112.3 8.566 113.14 8.566C113.933 8.566 114.582 8.72933 115.086 9.056C115.599 9.38267 115.856 9.868 115.856 10.512C115.856 10.904 115.739 11.24 115.506 11.52C115.282 11.8 115.011 11.9727 114.694 12.038V12.066C115.076 12.1407 115.403 12.332 115.674 12.64C115.954 12.9387 116.094 13.3447 116.094 13.858C116.094 14.6047 115.8 15.188 115.212 15.608C114.624 16.0187 113.919 16.224 113.098 16.224C112.155 16.224 111.404 16.0093 110.844 15.58C110.293 15.1413 109.999 14.53 109.962 13.746H111.166C111.203 14.25 111.394 14.628 111.74 14.88C112.085 15.132 112.533 15.258 113.084 15.258C113.634 15.258 114.068 15.1273 114.386 14.866C114.703 14.5953 114.862 14.2687 114.862 13.886C114.862 13.102 114.348 12.71 113.322 12.71H112.328V11.744H113.126C113.583 11.744 113.952 11.6507 114.232 11.464C114.512 11.268 114.652 10.9693 114.652 10.568C114.652 10.288 114.512 10.0453 114.232 9.84C113.961 9.63467 113.592 9.532 113.126 9.532C112.65 9.532 112.234 9.63933 111.88 9.854C111.534 10.0687 111.338 10.4047 111.292 10.862H110.088ZM118.614 8.776V9.798C119.136 8.96733 119.948 8.552 121.05 8.552C122.058 8.552 122.856 8.89267 123.444 9.574C124.041 10.2553 124.34 11.1793 124.34 12.346C124.34 13.5127 124.046 14.446 123.458 15.146C122.879 15.8367 122.095 16.182 121.106 16.182C120.07 16.182 119.262 15.7853 118.684 14.992V18.786H117.494V8.776H118.614ZM120.868 9.546C120.177 9.546 119.631 9.798 119.23 10.302C118.838 10.7967 118.642 11.4827 118.642 12.36C118.642 13.2373 118.842 13.928 119.244 14.432C119.654 14.9267 120.21 15.174 120.91 15.174C121.591 15.174 122.128 14.922 122.52 14.418C122.912 13.914 123.108 13.228 123.108 12.36C123.108 11.4827 122.907 10.7967 122.506 10.302C122.114 9.798 121.568 9.546 120.868 9.546ZM132.19 15.048V15.972C131.948 16.0653 131.677 16.112 131.378 16.112C130.697 16.112 130.347 15.7573 130.328 15.048C129.647 15.8133 128.774 16.196 127.71 16.196C127.001 16.196 126.436 16.014 126.016 15.65C125.606 15.286 125.4 14.7867 125.4 14.152C125.4 12.864 126.254 12.1127 127.962 11.898C128.074 11.8793 128.238 11.8607 128.452 11.842C129.264 11.7487 129.764 11.6413 129.95 11.52C130.165 11.3707 130.272 11.114 130.272 10.75C130.272 9.95667 129.726 9.56 128.634 9.56C128.074 9.56 127.65 9.67667 127.36 9.91C127.071 10.134 126.898 10.5073 126.842 11.03H125.68C125.699 10.2553 125.974 9.65333 126.506 9.224C127.038 8.79467 127.771 8.58 128.704 8.58C129.722 8.58 130.478 8.81333 130.972 9.28C131.131 9.42933 131.248 9.62533 131.322 9.868C131.397 10.1107 131.439 10.3113 131.448 10.47C131.458 10.6193 131.462 10.848 131.462 11.156C131.462 11.5107 131.453 12.0473 131.434 12.766C131.416 13.4847 131.406 14.0213 131.406 14.376C131.406 14.6373 131.439 14.824 131.504 14.936C131.579 15.0387 131.71 15.09 131.896 15.09C131.971 15.09 132.069 15.076 132.19 15.048ZM130.272 12.248C130.188 12.3133 130.1 12.3693 130.006 12.416C129.913 12.4627 129.792 12.5 129.642 12.528C129.502 12.556 129.404 12.5793 129.348 12.598C129.302 12.6073 129.18 12.626 128.984 12.654C128.788 12.6727 128.686 12.682 128.676 12.682C128.387 12.7193 128.196 12.7473 128.102 12.766C128.018 12.7753 127.85 12.8127 127.598 12.878C127.356 12.9433 127.183 13.018 127.08 13.102C126.978 13.186 126.875 13.312 126.772 13.48C126.679 13.6387 126.632 13.83 126.632 14.054C126.632 14.4273 126.758 14.7213 127.01 14.936C127.272 15.1507 127.626 15.258 128.074 15.258C128.644 15.258 129.152 15.09 129.6 14.754C130.048 14.418 130.272 14.0213 130.272 13.564V12.248ZM133.984 7.768C134.301 7.27333 134.684 6.90933 135.132 6.676C135.58 6.43333 136.149 6.28867 136.84 6.242C137.615 6.186 138.086 6.11133 138.254 6.018C138.366 5.962 138.45 5.88733 138.506 5.794H139.696C139.668 5.94333 139.626 6.07867 139.57 6.2C139.523 6.32133 139.467 6.42867 139.402 6.522C139.346 6.606 139.262 6.68533 139.15 6.76C139.047 6.83467 138.959 6.9 138.884 6.956C138.809 7.00267 138.697 7.04933 138.548 7.096C138.408 7.13333 138.296 7.166 138.212 7.194C138.128 7.21267 137.997 7.23133 137.82 7.25C137.652 7.26867 137.531 7.28267 137.456 7.292C137.381 7.30133 137.246 7.31067 137.05 7.32C136.854 7.32933 136.728 7.33867 136.672 7.348C135.907 7.404 135.309 7.70267 134.88 8.244C134.451 8.776 134.18 9.49 134.068 10.386H134.11C134.315 9.89133 134.642 9.49467 135.09 9.196C135.538 8.89733 136.056 8.748 136.644 8.748C137.671 8.748 138.473 9.07467 139.052 9.728C139.64 10.372 139.934 11.2773 139.934 12.444C139.934 13.648 139.635 14.5813 139.038 15.244C138.45 15.9067 137.619 16.238 136.546 16.238C135.669 16.238 134.927 15.9813 134.32 15.468C133.713 14.9453 133.34 14.1987 133.2 13.228C133.144 12.836 133.116 12.3973 133.116 11.912C133.116 10.036 133.405 8.65467 133.984 7.768ZM134.334 12.486C134.334 13.3073 134.53 13.97 134.922 14.474C135.323 14.978 135.869 15.23 136.56 15.23C137.232 15.23 137.759 14.9873 138.142 14.502C138.525 14.0167 138.716 13.34 138.716 12.472C138.716 11.6227 138.52 10.9553 138.128 10.47C137.736 9.98467 137.204 9.742 136.532 9.742C135.86 9.742 135.323 9.98933 134.922 10.484C134.53 10.9693 134.334 11.6367 134.334 12.486ZM141.925 9.602C142.56 8.91133 143.423 8.566 144.515 8.566C145.607 8.566 146.456 8.89733 147.063 9.56C147.67 10.2227 147.973 11.1513 147.973 12.346C147.973 13.5687 147.67 14.5207 147.063 15.202C146.456 15.8833 145.602 16.224 144.501 16.224C143.4 16.224 142.536 15.888 141.911 15.216C141.286 14.544 140.973 13.6107 140.973 12.416C140.973 11.2307 141.29 10.2927 141.925 9.602ZM146.139 10.33C145.738 9.81667 145.187 9.56 144.487 9.56C143.787 9.56 143.232 9.81667 142.821 10.33C142.41 10.8433 142.205 11.5293 142.205 12.388C142.205 13.2747 142.406 13.97 142.807 14.474C143.218 14.9687 143.787 15.216 144.515 15.216C145.215 15.216 145.761 14.964 146.153 14.46C146.554 13.956 146.755 13.2607 146.755 12.374C146.755 11.5153 146.55 10.834 146.139 10.33ZM154.674 9.826H152.084V16H150.894V9.826H148.304V8.776H154.674V9.826ZM161.776 15.048V15.972C161.534 16.0653 161.263 16.112 160.964 16.112C160.283 16.112 159.933 15.7573 159.914 15.048C159.233 15.8133 158.36 16.196 157.296 16.196C156.587 16.196 156.022 16.014 155.602 15.65C155.192 15.286 154.986 14.7867 154.986 14.152C154.986 12.864 155.84 12.1127 157.548 11.898C157.66 11.8793 157.824 11.8607 158.038 11.842C158.85 11.7487 159.35 11.6413 159.536 11.52C159.751 11.3707 159.858 11.114 159.858 10.75C159.858 9.95667 159.312 9.56 158.22 9.56C157.66 9.56 157.236 9.67667 156.946 9.91C156.657 10.134 156.484 10.5073 156.428 11.03H155.266C155.285 10.2553 155.56 9.65333 156.092 9.224C156.624 8.79467 157.357 8.58 158.29 8.58C159.308 8.58 160.064 8.81333 160.558 9.28C160.717 9.42933 160.834 9.62533 160.908 9.868C160.983 10.1107 161.025 10.3113 161.034 10.47C161.044 10.6193 161.048 10.848 161.048 11.156C161.048 11.5107 161.039 12.0473 161.02 12.766C161.002 13.4847 160.992 14.0213 160.992 14.376C160.992 14.6373 161.025 14.824 161.09 14.936C161.165 15.0387 161.296 15.09 161.482 15.09C161.557 15.09 161.655 15.076 161.776 15.048ZM159.858 12.248C159.774 12.3133 159.686 12.3693 159.592 12.416C159.499 12.4627 159.378 12.5 159.228 12.528C159.088 12.556 158.99 12.5793 158.934 12.598C158.888 12.6073 158.766 12.626 158.57 12.654C158.374 12.6727 158.272 12.682 158.262 12.682C157.973 12.7193 157.782 12.7473 157.688 12.766C157.604 12.7753 157.436 12.8127 157.184 12.878C156.942 12.9433 156.769 13.018 156.666 13.102C156.564 13.186 156.461 13.312 156.358 13.48C156.265 13.6387 156.218 13.83 156.218 14.054C156.218 14.4273 156.344 14.7213 156.596 14.936C156.858 15.1507 157.212 15.258 157.66 15.258C158.23 15.258 158.738 15.09 159.186 14.754C159.634 14.418 159.858 14.0213 159.858 13.564V12.248ZM164.088 16H162.898V8.776H164.088V11.646H167.7V8.776H168.89V16H167.7V12.696H164.088V16ZM58.868 30V22.776H62.214C62.69 22.776 63.096 22.818 63.432 22.902C63.768 22.9767 64.062 23.1493 64.314 23.42C64.566 23.6907 64.692 24.0593 64.692 24.526C64.692 25.2353 64.3373 25.7533 63.628 26.08V26.094C64.0573 26.178 64.3933 26.3787 64.636 26.696C64.8787 27.004 65 27.396 65 27.872C65 28.488 64.7947 28.9967 64.384 29.398C63.9733 29.7993 63.446 30 62.802 30H58.868ZM62.088 25.688C62.5827 25.688 62.9327 25.6087 63.138 25.45C63.3527 25.282 63.46 25.0393 63.46 24.722C63.46 24.4047 63.3573 24.1713 63.152 24.022C62.9467 23.8727 62.592 23.798 62.088 23.798H60.03V25.688H62.088ZM60.03 26.696V28.978H62.578C62.9513 28.978 63.2407 28.866 63.446 28.642C63.6607 28.418 63.768 28.1287 63.768 27.774C63.768 27.0553 63.3013 26.696 62.368 26.696H60.03ZM70.284 30V22.776H73.63C74.106 22.776 74.512 22.818 74.848 22.902C75.184 22.9767 75.478 23.1493 75.73 23.42C75.982 23.6907 76.108 24.0593 76.108 24.526C76.108 25.2353 75.7533 25.7533 75.044 26.08V26.094C75.4733 26.178 75.8093 26.3787 76.052 26.696C76.2947 27.004 76.416 27.396 76.416 27.872C76.416 28.488 76.2107 28.9967 75.8 29.398C75.3893 29.7993 74.862 30 74.218 30H70.284ZM73.504 25.688C73.9987 25.688 74.3487 25.6087 74.554 25.45C74.7687 25.282 74.876 25.0393 74.876 24.722C74.876 24.4047 74.7733 24.1713 74.568 24.022C74.3627 23.8727 74.008 23.798 73.504 23.798H71.446V25.688H73.504ZM71.446 26.696V28.978H73.994C74.3673 28.978 74.6567 28.866 74.862 28.642C75.0767 28.418 75.184 28.1287 75.184 27.774C75.184 27.0553 74.7173 26.696 73.784 26.696H71.446ZM84.0055 27.718C83.6415 29.398 82.5915 30.238 80.8555 30.238C79.7915 30.238 78.9562 29.9067 78.3495 29.244C77.7522 28.5813 77.4535 27.662 77.4535 26.486C77.4535 25.3193 77.7615 24.3767 78.3775 23.658C79.0029 22.93 79.8149 22.566 80.8135 22.566C81.9242 22.566 82.7455 22.944 83.2775 23.7C83.8189 24.4467 84.0895 25.394 84.0895 26.542V26.71H78.6575L78.6435 26.794C78.6435 27.5593 78.8442 28.1613 79.2455 28.6C79.6469 29.0387 80.1975 29.258 80.8975 29.258C81.4202 29.258 81.8309 29.1367 82.1295 28.894C82.4375 28.6513 82.6755 28.2593 82.8435 27.718H84.0055ZM82.8575 25.744C82.8015 25.0533 82.5915 24.5167 82.2275 24.134C81.8635 23.742 81.3829 23.546 80.7855 23.546C80.2069 23.546 79.7262 23.742 79.3435 24.134C78.9609 24.526 78.7322 25.0627 78.6575 25.744H82.8575ZM86.0231 21.768C86.3404 21.2733 86.7231 20.9093 87.1711 20.676C87.6191 20.4333 88.1884 20.2887 88.8791 20.242C89.6537 20.186 90.1251 20.1113 90.2931 20.018C90.4051 19.962 90.4891 19.8873 90.5451 19.794H91.7351C91.7071 19.9433 91.6651 20.0787 91.6091 20.2C91.5624 20.3213 91.5064 20.4287 91.4411 20.522C91.3851 20.606 91.3011 20.6853 91.1891 20.76C91.0864 20.8347 90.9977 20.9 90.9231 20.956C90.8484 21.0027 90.7364 21.0493 90.5871 21.096C90.4471 21.1333 90.3351 21.166 90.2511 21.194C90.1671 21.2127 90.0364 21.2313 89.8591 21.25C89.6911 21.2687 89.5697 21.2827 89.4951 21.292C89.4204 21.3013 89.2851 21.3107 89.0891 21.32C88.8931 21.3293 88.7671 21.3387 88.7111 21.348C87.9457 21.404 87.3484 21.7027 86.9191 22.244C86.4897 22.776 86.2191 23.49 86.1071 24.386H86.1491C86.3544 23.8913 86.6811 23.4947 87.1291 23.196C87.5771 22.8973 88.0951 22.748 88.6831 22.748C89.7097 22.748 90.5124 23.0747 91.0911 23.728C91.6791 24.372 91.9731 25.2773 91.9731 26.444C91.9731 27.648 91.6744 28.5813 91.0771 29.244C90.4891 29.9067 89.6584 30.238 88.5851 30.238C87.7077 30.238 86.9657 29.9813 86.3591 29.468C85.7524 28.9453 85.3791 28.1987 85.2391 27.228C85.1831 26.836 85.1551 26.3973 85.1551 25.912C85.1551 24.036 85.4444 22.6547 86.0231 21.768ZM86.3731 26.486C86.3731 27.3073 86.5691 27.97 86.9611 28.474C87.3624 28.978 87.9084 29.23 88.5991 29.23C89.2711 29.23 89.7984 28.9873 90.1811 28.502C90.5637 28.0167 90.7551 27.34 90.7551 26.472C90.7551 25.6227 90.5591 24.9553 90.1671 24.47C89.7751 23.9847 89.2431 23.742 88.5711 23.742C87.8991 23.742 87.3624 23.9893 86.9611 24.484C86.5691 24.9693 86.3731 25.6367 86.3731 26.486ZM97.2541 25.52V26.696H93.1801V25.52H97.2541ZM105.048 27.368C104.945 28.236 104.614 28.9267 104.054 29.44C103.503 29.9533 102.784 30.21 101.898 30.21C100.806 30.21 99.9609 29.874 99.3635 29.202C98.7662 28.5207 98.4675 27.6153 98.4675 26.486C98.4675 25.282 98.7802 24.33 99.4055 23.63C100.031 22.9207 100.876 22.566 101.94 22.566C102.826 22.566 103.536 22.79 104.068 23.238C104.6 23.6767 104.912 24.3067 105.006 25.128H103.774C103.559 24.0827 102.952 23.56 101.954 23.56C101.263 23.56 100.717 23.8167 100.316 24.33C99.9142 24.834 99.7135 25.52 99.7135 26.388C99.7135 27.2653 99.9049 27.956 100.288 28.46C100.67 28.964 101.198 29.216 101.87 29.216C102.411 29.216 102.85 29.0573 103.186 28.74C103.531 28.4227 103.75 27.9653 103.844 27.368H105.048ZM111.881 23.826H109.291V30H108.101V23.826H105.511V22.776H111.881V23.826ZM118.81 22.776L115.716 30.924C115.594 31.2507 115.487 31.5027 115.394 31.68C115.31 31.8667 115.184 32.0673 115.016 32.282C114.857 32.506 114.661 32.6647 114.428 32.758C114.204 32.8607 113.938 32.912 113.63 32.912C113.396 32.912 113.102 32.87 112.748 32.786V31.722C113.093 31.8247 113.35 31.876 113.518 31.876C113.91 31.876 114.19 31.6753 114.358 31.274L114.918 29.958L112.048 22.776H113.392L115.534 28.53L117.564 22.776H118.81ZM126.585 32.296H125.451V30H119.935V32.296H118.801V28.95H119.585C119.809 28.5207 120.015 27.858 120.201 26.962C120.397 26.0567 120.495 25.1747 120.495 24.316V22.776H125.647V28.95H126.585V32.296ZM124.457 28.95V23.826H121.657V24.428C121.657 25.2773 121.569 26.1407 121.391 27.018C121.223 27.886 121.032 28.53 120.817 28.95H124.457ZM129.151 30H127.625V22.776H128.815V28.67H128.843L132.091 22.776H133.617V30H132.427V24.106H132.399L129.151 30ZM136.93 30H135.404V22.776H136.594V28.67H136.622L139.87 22.776H141.396V30H140.206V24.106H140.178L136.93 30ZM146.38 20.032H147.738L149.712 28.362L151.966 20.032H153.408L155.634 28.362L157.678 20.032H158.994L156.334 30H154.948L152.652 21.656L150.328 30H148.942L146.38 20.032ZM159.341 20.032H160.699L162.673 28.362L164.927 20.032H166.369L168.595 28.362L170.639 20.032H171.955L169.295 30H167.909L165.613 21.656L163.289 30H161.903L159.341 20.032Z" fill="white"/>
<g clip-path="url(#clip0)">
<path fill-rule="evenodd" clip-rule="evenodd" d="M22.2942 20.0237V6H23.8264V23.3378L11.9113 13.411L0 23.3378V6H1.53219V20.0237L11.9113 11.3882L22.2942 20.0237Z" fill="white"/>
<path fill-rule="evenodd" clip-rule="evenodd" d="M11.911 23.6379L2.11699 31.7684L1.13623 30.5995L11.911 21.5791L22.6897 30.5995L21.7089 31.7684L11.911 23.6379Z" fill="white"/>
<path fill-rule="evenodd" clip-rule="evenodd" d="M48.468 20.0237V6H50.0002V23.3378L38.0851 13.411L26.1738 23.3378V6H27.7056V20.0237L38.0851 11.3882L48.468 20.0237Z" fill="white"/>
<path fill-rule="evenodd" clip-rule="evenodd" d="M38.0849 23.6379L28.2908 31.7684L27.3101 30.5995L38.0849 21.5791L48.8635 30.5995L47.8828 31.7684L38.0849 23.6379Z" fill="white"/>
</g>
<defs>
<clipPath id="clip0">
<rect width="50" height="37" fill="white"/>
</clipPath>
</defs>
</svg>
