<svg width="130" height="39" viewBox="0 0 130 39" fill="none" xmlns="http://www.w3.org/2000/svg">
<g clip-path="url(#clip0)">
<path d="M67.9438 28.8251H61.3787V8.09217H52.2604V28.8251H45.6953V2.90894H67.9438V28.8251ZM95.6804 28.8251H89.1153V8.09217H79.9971V28.8251H73.4319V2.90894H95.6804V28.8251ZM123.052 14.3861L117.946 23.6419H112.84L107.733 14.3861V28.8251H101.168V2.90894H108.098L115.393 16.6075L122.687 2.90894H129.617V28.8251H123.052V14.3861Z" fill="#121212"/>
<path d="M50.6911 30.4689V36.4941H49.9075V31.1628H46.7729V36.4941H45.9893V30.4689H50.6911ZM52.4642 32.1275V32.7453C52.7753 32.2431 53.2588 31.9921 53.9148 31.9921C54.5151 31.9921 54.9903 32.1981 55.3404 32.6099C55.696 33.0216 55.8739 33.5801 55.8739 34.2854C55.8739 34.9907 55.6989 35.5548 55.3487 35.9779C55.0041 36.3955 54.5372 36.6041 53.9482 36.6041C53.3313 36.6041 52.8503 36.3643 52.5059 35.8848V38.1781H51.7973V32.1275H52.4642ZM53.8065 32.5929C53.3951 32.5929 53.07 32.7453 52.8311 33.0499C52.5976 33.349 52.4809 33.7637 52.4809 34.2939C52.4809 34.8241 52.6002 35.2417 52.8394 35.5463C53.0838 35.8454 53.4146 35.9948 53.8315 35.9948C54.2371 35.9948 54.5568 35.8425 54.7902 35.5379C55.0236 35.2332 55.1403 34.8186 55.1403 34.2939C55.1403 33.7637 55.0207 33.349 54.7818 33.0499C54.5484 32.7453 54.2233 32.5929 53.8065 32.5929ZM56.9976 32.6268C57.3753 32.2092 57.8896 32.0006 58.5399 32.0006C59.1901 32.0006 59.6958 32.2008 60.0571 32.6014C60.4182 33.002 60.599 33.5632 60.599 34.2854C60.599 35.0246 60.4182 35.6 60.0571 36.0118C59.6958 36.4235 59.1873 36.6295 58.5315 36.6295C57.8755 36.6295 57.3615 36.4264 56.9892 36.0202C56.6167 35.614 56.4307 35.0499 56.4307 34.3277C56.4307 33.6113 56.6196 33.0444 56.9976 32.6268ZM59.5069 33.0668C59.2678 32.7566 58.94 32.6014 58.5232 32.6014C58.1064 32.6014 57.7755 32.7566 57.5311 33.0668C57.2865 33.377 57.1643 33.7917 57.1643 34.3108C57.1643 34.8468 57.2836 35.2671 57.5228 35.5717C57.7672 35.8708 58.1064 36.0202 58.5399 36.0202C58.9567 36.0202 59.2818 35.8679 59.5153 35.5632C59.7541 35.2586 59.8737 34.8384 59.8737 34.3023C59.8737 33.7832 59.7513 33.3715 59.5069 33.0668ZM67.1618 34.2431C67.1618 34.6776 67.1089 35.064 67.0034 35.4025C66.8976 35.741 66.7088 36.0258 66.4365 36.2572C66.1697 36.4827 65.8334 36.5957 65.4278 36.5957C65.272 36.5957 65.1053 36.5504 64.9276 36.4603C64.7496 36.3701 64.6163 36.2712 64.5274 36.1641H64.5107V38.1781H63.8105V36.1641H63.7938C63.7047 36.2712 63.5713 36.3701 63.3936 36.4603C63.2157 36.5504 63.049 36.5957 62.8934 36.5957C62.4875 36.5957 62.1486 36.4827 61.8764 36.2572C61.6096 36.0258 61.4233 35.741 61.3178 35.4025C61.212 35.064 61.1594 34.6776 61.1594 34.2431C61.1594 33.5547 61.3095 33.0131 61.6096 32.6183C61.9097 32.2177 62.3182 32.0175 62.8351 32.0175C63.0127 32.0175 63.1935 32.0683 63.377 32.1698C63.5658 32.2658 63.7021 32.3729 63.7854 32.4914H63.8105V30.4689H64.5107V32.4914H64.5358C64.6191 32.3729 64.7525 32.2658 64.9359 32.1698C65.1248 32.0683 65.3082 32.0175 65.4861 32.0175C66.003 32.0175 66.4115 32.2177 66.7116 32.6183C67.0117 33.0131 67.1618 33.5547 67.1618 34.2431ZM66.4282 34.26C66.4282 33.7578 66.3419 33.3601 66.1697 33.0668C65.9973 32.7677 65.7362 32.6183 65.3861 32.6183C65.2027 32.6183 65.0248 32.6662 64.8525 32.7622C64.6858 32.8582 64.5717 33.0131 64.5107 33.2276V35.4278C64.5384 35.5857 64.6301 35.7211 64.7859 35.834C64.9469 35.9411 65.1331 35.9948 65.3444 35.9948C65.55 35.9948 65.725 35.9441 65.8696 35.8425C66.0197 35.741 66.1335 35.6026 66.2114 35.4278C66.2891 35.2472 66.3448 35.064 66.3782 34.8778C66.4115 34.6861 66.4282 34.4801 66.4282 34.26ZM63.8105 35.4278V33.2276C63.7492 33.0131 63.6325 32.8582 63.4603 32.7622C63.2936 32.6662 63.1185 32.6183 62.9351 32.6183C62.585 32.6183 62.3237 32.7677 62.1515 33.0668C61.979 33.3601 61.893 33.7578 61.893 34.26C61.893 34.4801 61.9097 34.6861 61.943 34.8778C61.9764 35.064 62.0319 35.2472 62.1098 35.4278C62.1874 35.6026 62.2987 35.741 62.4432 35.8425C62.5933 35.9441 62.771 35.9948 62.9768 35.9948C63.1878 35.9948 63.3712 35.9411 63.527 35.834C63.688 35.7211 63.7826 35.5857 63.8105 35.4278ZM72.7706 30.4689V36.4941H71.9869V31.1628H68.8523V36.4941H68.0687V30.4689H72.7706ZM74.2185 32.6268C74.5966 32.2092 75.1106 32.0006 75.7608 32.0006C76.4111 32.0006 76.9168 32.2008 77.2781 32.6014C77.6394 33.002 77.82 33.5632 77.82 34.2854C77.82 35.0246 77.6394 35.6 77.2781 36.0118C76.9168 36.4235 76.4082 36.6295 75.7525 36.6295C75.0968 36.6295 74.5825 36.4264 74.2102 36.0202C73.8379 35.614 73.6516 35.0499 73.6516 34.3277C73.6516 33.6113 73.8405 33.0444 74.2185 32.6268ZM76.7279 33.0668C76.489 32.7566 76.161 32.6014 75.7441 32.6014C75.3273 32.6014 74.9967 32.7566 74.7521 33.0668C74.5075 33.377 74.3853 33.7917 74.3853 34.3108C74.3853 34.8468 74.5049 35.2671 74.7437 35.5717C74.9884 35.8708 75.3273 36.0202 75.7608 36.0202C76.1777 36.0202 76.5028 35.8679 76.7362 35.5632C76.9751 35.2586 77.0947 34.8384 77.0947 34.3023C77.0947 33.7832 76.9725 33.3715 76.7279 33.0668ZM81.9617 32.1275V36.4941H81.2531V32.7622H79.7192L79.6608 34.6916C79.6441 35.3572 79.5246 35.8396 79.3023 36.1387C79.0799 36.4378 78.8021 36.5872 78.4687 36.5872C78.2629 36.5872 78.0935 36.5563 77.9601 36.4941V35.9102C78.0323 35.9496 78.1574 35.9694 78.3353 35.9694C78.502 35.9694 78.6437 35.8793 78.7605 35.6986C78.8826 35.5125 78.9493 35.2023 78.9605 34.7678L79.0356 32.1275H81.9617ZM83.8346 36.4941H82.9259V32.1275H83.6346V35.6902H83.6512L85.5853 32.1275H86.494V36.4941H85.7854V32.9314H85.7687L83.8346 36.4941ZM92.1351 36.4941H91.4265V33.0499H91.4015L90.126 36.4941H89.4757L88.2002 33.0499H88.1752V36.4941H87.4666V32.1275H88.4836L89.7925 35.6648H89.8092L91.118 32.1275H92.1351V36.4941ZM96.7752 35.1147C96.5585 36.1302 95.9332 36.638 94.8995 36.638C94.2659 36.638 93.7683 36.4378 93.4072 36.0371C93.0513 35.6365 92.8737 35.0809 92.8737 34.37C92.8737 33.6648 93.0571 33.0951 93.4239 32.6606C93.7962 32.2206 94.2797 32.0006 94.8745 32.0006C95.5357 32.0006 96.0249 32.2291 96.3417 32.686C96.664 33.1374 96.8253 33.71 96.8253 34.4039V34.5054H93.5906L93.5823 34.5562C93.5823 35.0187 93.7016 35.3826 93.9408 35.6479C94.1797 35.9131 94.5077 36.0456 94.9245 36.0456C95.2356 36.0456 95.4802 35.9724 95.6581 35.8256C95.8415 35.6788 95.9832 35.4419 96.0833 35.1147H96.7752ZM96.0916 33.9215C96.0583 33.504 95.9332 33.1798 95.7165 32.9484C95.4997 32.7114 95.2134 32.5929 94.8578 32.5929C94.5131 32.5929 94.2268 32.7114 93.9991 32.9484C93.7712 33.1853 93.6349 33.5098 93.5906 33.9215H96.0916ZM98.1599 32.1275V32.7453C98.4712 32.2431 98.9548 31.9921 99.6105 31.9921C100.211 31.9921 100.686 32.1981 101.036 32.6099C101.392 33.0216 101.57 33.5801 101.57 34.2854C101.57 34.9907 101.395 35.5548 101.044 35.9779C100.7 36.3955 100.233 36.6041 99.6438 36.6041C99.0269 36.6041 98.5463 36.3643 98.2016 35.8848V38.1781H97.493V32.1275H98.1599ZM99.5021 32.5929C99.0907 32.5929 98.7656 32.7453 98.5267 33.0499C98.2933 33.349 98.1766 33.7637 98.1766 34.2939C98.1766 34.8241 98.2962 35.2417 98.535 35.5463C98.7797 35.8454 99.1103 35.9948 99.5271 35.9948C99.9328 35.9948 100.252 35.8425 100.486 35.5379C100.719 35.2332 100.836 34.8186 100.836 34.2939C100.836 33.7637 100.716 33.349 100.477 33.0499C100.244 32.7453 99.9189 32.5929 99.5021 32.5929ZM102.485 30.4689H103.569L105.478 35.5717L107.32 30.4689H108.412V36.4941H107.67V31.4674L105.811 36.4941H105.128L103.235 31.4674V36.4941H102.485V30.4689ZM113.207 35.1147C112.99 36.1302 112.365 36.638 111.331 36.638C110.697 36.638 110.2 36.4378 109.839 36.0371C109.483 35.6365 109.305 35.0809 109.305 34.37C109.305 33.6648 109.488 33.0951 109.855 32.6606C110.227 32.2206 110.711 32.0006 111.306 32.0006C111.967 32.0006 112.456 32.2291 112.773 32.686C113.095 33.1374 113.257 33.71 113.257 34.4039V34.5054H110.022L110.014 34.5562C110.014 35.0187 110.133 35.3826 110.372 35.6479C110.611 35.9131 110.939 36.0456 111.356 36.0456C111.667 36.0456 111.912 35.9724 112.089 35.8256C112.273 35.6788 112.415 35.4419 112.515 35.1147H113.207ZM112.523 33.9215C112.49 33.504 112.365 33.1798 112.148 32.9484C111.931 32.7114 111.645 32.5929 111.289 32.5929C110.944 32.5929 110.658 32.7114 110.43 32.9484C110.202 33.1853 110.066 33.5098 110.022 33.9215H112.523ZM117.071 32.7622H115.529V36.4941H114.82V32.7622H113.278V32.1275H117.071V32.7622ZM121.217 35.9187V36.4772C121.072 36.5335 120.911 36.5618 120.733 36.5618C120.327 36.5618 120.119 36.3473 120.108 35.9187C119.702 36.3812 119.183 36.6126 118.549 36.6126C118.126 36.6126 117.79 36.5026 117.54 36.2825C117.296 36.0625 117.174 35.7608 117.174 35.3771C117.174 34.5985 117.682 34.1445 118.699 34.0146C118.766 34.0033 118.863 33.9921 118.991 33.9808C119.474 33.9244 119.772 33.8594 119.883 33.7861C120.011 33.696 120.075 33.5407 120.075 33.3207C120.075 32.8413 119.75 32.6014 119.099 32.6014C118.766 32.6014 118.513 32.672 118.341 32.813C118.168 32.9484 118.066 33.1739 118.032 33.49H117.34C117.351 33.0216 117.515 32.6577 117.832 32.3983C118.149 32.1389 118.585 32.009 119.141 32.009C119.747 32.009 120.197 32.15 120.492 32.4322C120.586 32.5223 120.655 32.6408 120.7 32.7876C120.744 32.9343 120.769 33.0555 120.775 33.1515C120.78 33.2416 120.783 33.3799 120.783 33.5661C120.783 33.7806 120.778 34.1048 120.767 34.5393C120.755 34.9738 120.75 35.298 120.75 35.5125C120.75 35.6703 120.769 35.7833 120.808 35.851C120.853 35.9131 120.93 35.9441 121.042 35.9441C121.086 35.9441 121.144 35.9356 121.217 35.9187ZM120.075 34.2262C120.025 34.2656 119.972 34.2994 119.916 34.3277C119.861 34.356 119.788 34.3785 119.7 34.3954C119.616 34.4124 119.558 34.4264 119.524 34.4377C119.497 34.4433 119.424 34.4547 119.308 34.4716C119.191 34.483 119.13 34.4885 119.124 34.4885C118.952 34.511 118.838 34.5279 118.782 34.5393C118.732 34.5448 118.632 34.5676 118.482 34.607C118.338 34.6464 118.235 34.6916 118.174 34.7424C118.113 34.7932 118.051 34.8693 117.991 34.9709C117.935 35.0669 117.907 35.1824 117.907 35.3178C117.907 35.5434 117.982 35.7211 118.132 35.851C118.288 35.9808 118.499 36.0456 118.766 36.0456C119.105 36.0456 119.408 35.9441 119.675 35.741C119.941 35.5379 120.075 35.298 120.075 35.0217V34.2262ZM125.386 32.1275V36.4941H124.677V32.7622H123.143L123.085 34.6916C123.068 35.3572 122.949 35.8396 122.727 36.1387C122.504 36.4378 122.226 36.5872 121.893 36.5872C121.687 36.5872 121.518 36.5563 121.384 36.4941V35.9102C121.457 35.9496 121.582 35.9694 121.759 35.9694C121.926 35.9694 122.068 35.8793 122.185 35.6986C122.307 35.5125 122.374 35.2023 122.385 34.7678L122.46 32.1275H125.386ZM129.935 32.1275V36.4941H129.227V32.7622H127.693L127.634 34.6916C127.618 35.3572 127.498 35.8396 127.276 36.1387C127.053 36.4378 126.776 36.5872 126.442 36.5872C126.236 36.5872 126.067 36.5563 125.934 36.4941V35.9102C126.006 35.9496 126.131 35.9694 126.309 35.9694C126.475 35.9694 126.617 35.8793 126.734 35.6986C126.856 35.5125 126.923 35.2023 126.934 34.7678L127.009 32.1275H129.935Z" fill="#212121"/>
<path d="M6.59194 8.76862V25.0068H2.80826C1.27656 25.0068 0.151623 23.3018 0.0711205 21.9215C0.0174513 16.2652 -0.0576856 4.49799 0.0711205 2.67931C0.199927 0.860625 1.94954 0.135318 2.80826 0H21.8876C23.8198 0 24.6785 1.7862 24.8663 2.67931V6.3329C20.4923 6.30582 11.229 6.26793 9.16805 6.3329C7.10714 6.39785 6.59194 7.98376 6.59194 8.76862Z" fill="#3BA214"/>
<path d="M30.663 28.2545V12.0163H34.4468C35.9784 12.0163 37.1034 13.7213 37.1839 15.1016C37.2375 20.7579 37.3126 32.5251 37.1839 34.3437C37.0552 36.1626 35.3055 36.8877 34.4468 37.0231H15.3673C13.4352 37.0231 12.5765 35.237 12.3887 34.3437V30.6903C16.7627 30.7173 26.026 30.7551 28.087 30.6903C30.1477 30.6253 30.663 29.0393 30.663 28.2545Z" fill="#3BA214"/>
<path d="M12.0664 14.8579V25.0068H21.8074C24.303 25.0068 25.108 22.6522 25.1885 21.7591V12.1786H15.3671C13.0485 12.1786 12.1469 13.9648 12.0664 14.8579Z" fill="#3BA214"/>
</g>
<defs>
<clipPath id="clip0">
<rect width="130" height="38.3453" fill="white"/>
</clipPath>
</defs>
</svg>
