<svg width="12" height="16" viewBox="0 0 12 16" fill="none" xmlns="http://www.w3.org/2000/svg">
<path d="M5.91764 0.00333482C2.66837 -0.106167 0 2.49519 0 5.71972C0 9.37922 3.51186 12.035 5.48025 15.8544C5.58019 16.0484 5.85935 16.0486 5.95963 15.8547C7.74033 12.418 10.7838 10.1135 11.3478 6.80266C11.9318 3.37656 9.39112 0.120438 5.91764 0.00333482ZM5.71966 8.71572C4.06504 8.71572 2.72366 7.37431 2.72366 5.71972C2.72366 4.06513 4.06507 2.72372 5.71966 2.72372C7.37428 2.72372 8.71569 4.06513 8.71569 5.71972C8.71569 7.37431 7.37428 8.71572 5.71966 8.71572Z" fill="white"/>
</svg>
