<svg width="12" height="12" viewBox="0 0 12 12" fill="none" xmlns="http://www.w3.org/2000/svg">
<g clip-path="url(#clip0)">
<path d="M6.15112 0.00244008C3.71417 -0.0796866 1.71289 1.87133 1.71289 4.28973C1.71289 7.03435 4.34679 9.02621 5.82308 11.8908C5.89803 12.0362 6.1074 12.0364 6.18262 11.891C7.51814 9.31345 9.80072 7.58508 10.2237 5.10193C10.6617 2.53236 8.75623 0.0902677 6.15112 0.00244008ZM6.00264 6.53673C4.76167 6.53673 3.75564 5.53067 3.75564 4.28973C3.75564 3.04879 4.7617 2.04273 6.00264 2.04273C7.2436 2.04273 8.24966 3.04879 8.24966 4.28973C8.24966 5.53067 7.2436 6.53673 6.00264 6.53673Z" fill="#212121"/>
</g>
<defs>
<clipPath id="clip0">
<rect width="12" height="12" fill="white"/>
</clipPath>
</defs>
</svg>
