<svg width="35" height="49" viewBox="0 0 35 49" fill="none" xmlns="http://www.w3.org/2000/svg">
<g clip-path="url(#clip0)">
<path d="M14.7162 26.5022C13.7366 26.5022 12.7747 26.349 11.8633 26.0478C11.4167 25.8954 10.8676 26.0352 10.595 26.3151L8.796 27.6732C6.70963 26.5595 5.42446 25.2748 4.32596 23.204L5.64408 21.4519C5.98654 21.1099 6.10938 20.6103 5.96221 20.1415C5.65971 19.2253 5.50604 18.2639 5.50604 17.2839C5.50608 16.576 4.93013 16 4.22221 16H1.28387C0.575958 16 0 16.576 0 17.2839C0 25.3985 6.60158 32 14.7162 32C15.4241 32 16 31.424 16 30.7161V27.786C16 27.0781 15.424 26.5022 14.7162 26.5022Z" fill="#959595"/>
</g>
<path d="M34 0.5V48.5" stroke="#C4C4C4"/>
<defs>
<clipPath id="clip0">
<rect y="16" width="16" height="16" rx="3" fill="white"/>
</clipPath>
</defs>
</svg>
