<svg width="25" height="25" viewBox="0 0 25 25" fill="none" xmlns="http://www.w3.org/2000/svg">
<path d="M24.2676 9.81445H22.6505C22.4111 8.90771 22.0505 8.04023 21.5738 7.22412L22.7199 6.07803C22.8573 5.94067 22.9345 5.75439 22.9345 5.56011C22.9345 5.36582 22.8573 5.17959 22.7199 5.04224L19.9578 2.28013C19.6718 1.99414 19.2081 1.99409 18.922 2.28013L17.7758 3.42627C16.9597 2.94956 16.0922 2.58896 15.1855 2.34956V0.732422C15.1855 0.32793 14.8576 0 14.4531 0H10.5469C10.1424 0 9.81445 0.32793 9.81445 0.732422V2.34956C8.90776 2.58896 8.04028 2.94956 7.22417 3.42627L6.07803 2.28013C5.79204 1.99414 5.32827 1.99409 5.04224 2.28013L2.28013 5.04224C2.14277 5.17959 2.06558 5.36587 2.06558 5.56011C2.06558 5.75435 2.14277 5.94062 2.28013 6.07803L3.42627 7.22412C2.94951 8.04028 2.58896 8.90771 2.34951 9.81445H0.732422C0.32793 9.81445 0 10.1424 0 10.5469V14.4531C0 14.8576 0.32793 15.1855 0.732422 15.1855H2.34951C2.58892 16.0923 2.94951 16.9597 3.42622 17.7758L2.28008 18.9219C2.14272 19.0593 2.06553 19.2456 2.06553 19.4398C2.06553 19.6341 2.14268 19.8204 2.28008 19.9577L5.04219 22.7199C5.17954 22.8572 5.36582 22.9344 5.56006 22.9344C5.7543 22.9344 5.94058 22.8572 6.07793 22.7199L7.22407 21.5737C8.04019 22.0504 8.90762 22.411 9.81436 22.6504V24.2676C9.81436 24.6721 10.1423 25 10.5468 25H14.453C14.8575 25 15.1854 24.6721 15.1854 24.2676V22.6505C16.0922 22.4111 16.9596 22.0505 17.7757 21.5738L18.9219 22.7199C19.0592 22.8573 19.2455 22.9345 19.4397 22.9345C19.634 22.9345 19.8203 22.8573 19.9576 22.7199L22.7197 19.9578C22.8571 19.8204 22.9343 19.6341 22.9343 19.4399C22.9343 19.2456 22.8571 19.0594 22.7197 18.922L21.5736 17.7759C22.0503 16.9598 22.4108 16.0923 22.6503 15.1856H24.2676C24.6721 15.1856 25 14.8577 25 14.4532V10.5469C25 10.1424 24.6721 9.81445 24.2676 9.81445ZM12.5 19.3359C8.73062 19.3359 5.66406 16.2693 5.66406 12.5C5.66406 8.73066 8.73066 5.66406 12.5 5.66406C16.2693 5.66406 19.3359 8.73066 19.3359 12.5C19.3359 16.2693 16.2694 19.3359 12.5 19.3359Z" fill="#5F8806"/>
<path d="M15.4297 8.83789H13.2324V10.3027C13.2324 10.7072 12.9045 11.0352 12.5 11.0352C12.0955 11.0352 11.7676 10.7072 11.7676 10.3027V8.83789H9.57031C9.16582 8.83789 8.83789 9.16582 8.83789 9.57031V15.4297C8.83789 15.8342 9.16582 16.1621 9.57031 16.1621H15.4297C15.8342 16.1621 16.1621 15.8342 16.1621 15.4297V9.57031C16.1621 9.16582 15.8342 8.83789 15.4297 8.83789Z" fill="#5F8806"/>
</svg>
