<svg width="26" height="26" viewBox="0 0 26 26" fill="none" xmlns="http://www.w3.org/2000/svg">
<path d="M1.30295 0.224558L6.48716 5.40878L4.34485 7.55109C4.0468 7.84914 4.0468 8.33234 4.34485 8.63039C4.64285 8.92838 5.1261 8.92843 5.42415 8.63039L7.56651 6.48802L9.74347 8.66498L7.60116 10.8073C7.30311 11.1053 7.30311 11.5885 7.60116 11.8866C7.89916 12.1846 8.38241 12.1846 8.68046 11.8866L10.8228 9.74423L12.9998 11.9212L10.8575 14.0635C10.5594 14.3616 10.5594 14.8447 10.8575 15.1428C11.1555 15.4408 11.6387 15.4408 11.9368 15.1428L14.0791 13.0004L16.2561 15.1774L14.1138 17.3197C13.8157 17.6178 13.8157 18.101 14.1138 18.399C14.4118 18.697 14.895 18.6971 15.1931 18.399L17.3354 16.2566L19.5124 18.4336L17.3701 20.5759C17.072 20.874 17.072 21.3572 17.3701 21.6552C17.6681 21.9532 18.1513 21.9533 18.4494 21.6552L20.5917 19.5129L25.7758 24.6974C26.2551 25.1768 25.9151 26.0002 25.2361 26.0002H0.763323C0.341841 26.0002 0.000137329 25.6585 0.000137329 25.237V0.764232C8.58307e-05 0.0862687 0.822853 -0.255486 1.30295 0.224558ZM4.93535 20.3018C4.93535 20.7233 5.27706 21.065 5.69854 21.065H12.6181C13.2957 21.065 13.6381 20.2425 13.1577 19.7621L6.23816 12.8426C5.75873 12.3631 4.93535 12.7033 4.93535 13.3822V20.3018Z" fill="#5F8806"/>
</svg>
