<svg width="48" height="48" viewBox="0 0 48 48" fill="none" xmlns="http://www.w3.org/2000/svg">
<circle cx="24" cy="24" r="24" fill="#5F8806"/>
<path d="M32.75 12.75H27.525C27 11.3 25.625 10.25 24 10.25C22.375 10.25 21 11.3 20.475 12.75H15.25C13.875 12.75 12.75 13.875 12.75 15.25V32.75C12.75 34.125 13.875 35.25 15.25 35.25H32.75C34.125 35.25 35.25 34.125 35.25 32.75V15.25C35.25 13.875 34.125 12.75 32.75 12.75ZM24 12.75C24.6875 12.75 25.25 13.3125 25.25 14C25.25 14.6875 24.6875 15.25 24 15.25C23.3125 15.25 22.75 14.6875 22.75 14C22.75 13.3125 23.3125 12.75 24 12.75ZM21.5 30.25L16.5 25.25L18.2625 23.4875L21.5 26.7125L29.7375 18.475L31.5 20.25L21.5 30.25Z" fill="white"/>
</svg>
