<svg width="48" height="48" viewBox="0 0 48 48" fill="none" xmlns="http://www.w3.org/2000/svg">
<circle cx="24" cy="24" r="24" fill="#5F8806"/>
<path d="M26.5 11.5H16.5C15.125 11.5 14 12.625 14 14V34C14 35.375 15.125 36.5 16.5 36.5H31.5C32.875 36.5 34 35.375 34 34V19L26.5 11.5ZM27.75 22.75H22.75V24H26.5C27.1875 24 27.75 24.5625 27.75 25.25V29C27.75 29.6875 27.1875 30.25 26.5 30.25H25.25V31.5H22.75V30.25H20.25V27.75H25.25V26.5H21.5C20.8125 26.5 20.25 25.9375 20.25 25.25V21.5C20.25 20.8125 20.8125 20.25 21.5 20.25H22.75V19H25.25V20.25H27.75V22.75Z" fill="white"/>
</svg>
