<svg width="48" height="48" viewBox="0 0 48 48" fill="none" xmlns="http://www.w3.org/2000/svg">
<circle cx="24" cy="24" r="24" fill="#5F8806"/>
<path d="M24 32.75C24 27.9125 27.9125 24 32.75 24C34.1 24 35.3625 24.3125 36.5 24.85V16.5C36.5 15.125 35.375 14 34 14H14C12.625 14 11.5 15.125 11.5 16.5V31.5C11.5 32.875 12.625 34 14 34H24.1C24.0375 33.5875 24 33.175 24 32.75ZM14 16.5L24 22.75L34 16.5V19L24 25.25L14 19V16.5ZM30.675 36.5L26.25 32.075L28.0125 30.3125L30.6625 32.9625L35.9625 27.6625L37.75 29.425L30.675 36.5Z" fill="white"/>
</svg>
