<svg width="48" height="48" viewBox="0 0 48 48" fill="none" xmlns="http://www.w3.org/2000/svg">
<circle cx="24" cy="24" r="24" fill="#5F8806"/>
<path d="M11.5 34H14C14.6875 34 15.25 33.4375 15.25 32.75V21.5C15.25 20.8125 14.6875 20.25 14 20.25H11.5V34ZM36.2875 25.1C36.425 24.7875 36.5 24.45 36.5 24.1V22.75C36.5 21.375 35.375 20.25 34 20.25H27.125L28.275 14.4375C28.3375 14.1625 28.3 13.8625 28.175 13.6125C27.8875 13.05 27.525 12.5375 27.075 12.0875L26.5 11.5L18.4875 19.5125C18.0125 19.9875 17.75 20.625 17.75 21.2875V31.0875C17.75 32.6875 19.0625 34 20.675 34H30.8125C31.6875 34 32.5125 33.5375 32.9625 32.7875L36.2875 25.1Z" fill="white"/>
</svg>
