<svg width="20" height="20" viewBox="0 0 20 20" fill="none" xmlns="http://www.w3.org/2000/svg">
<path d="M10 20C15.5229 20 20 15.5229 20 10C20 4.47715 15.5229 0 10 0C4.47715 0 0 4.47715 0 10C0 15.5229 4.47715 20 10 20Z" fill="white"/>
<path d="M13.5804 9.22257C13.5925 7.81267 12.3917 6.52018 10.9037 6.34145C10.8741 6.33796 10.8419 6.33262 10.8077 6.32696C10.734 6.31479 10.6579 6.30225 10.581 6.30225C10.276 6.30225 10.1945 6.51643 10.1731 6.6442C10.1522 6.76844 10.1721 6.87272 10.2321 6.95442C10.3331 7.09172 10.5108 7.11611 10.6536 7.13563C10.6954 7.1414 10.7349 7.1468 10.7679 7.1542C12.1048 7.45293 12.5549 7.92262 12.7749 9.24812C12.7803 9.2805 12.7828 9.3204 12.7853 9.36272C12.7949 9.52119 12.8149 9.85087 13.1693 9.85087H13.1694C13.1988 9.85087 13.2306 9.84833 13.2636 9.84325C13.5936 9.79315 13.5833 9.49177 13.5783 9.34701C13.5769 9.30622 13.5756 9.26764 13.579 9.24198C13.58 9.23553 13.5804 9.22907 13.5804 9.22257Z" fill="#48A9CF"/>
<path d="M10.4945 5.82414C10.534 5.827 10.5715 5.8297 10.6027 5.83452C12.7981 6.17213 13.8076 7.21224 14.0874 9.42473C14.0922 9.46234 14.0929 9.50822 14.0937 9.55679C14.0965 9.72965 14.1022 10.0892 14.4884 10.0967L14.5004 10.0968C14.6215 10.0968 14.7178 10.0603 14.7868 9.98816C14.907 9.8624 14.8986 9.67562 14.8918 9.52552C14.8902 9.48864 14.8886 9.45398 14.889 9.42361C14.9169 7.16081 12.9582 5.10891 10.6975 5.03261C10.6881 5.0323 10.6791 5.0328 10.6701 5.03407C10.6657 5.03472 10.6574 5.03553 10.6433 5.03553C10.6208 5.03553 10.593 5.03357 10.5636 5.03158C10.5281 5.02916 10.4878 5.02637 10.4469 5.02637C10.0869 5.02637 10.0184 5.28227 10.0096 5.43483C9.98949 5.78737 10.3305 5.81219 10.4945 5.82414Z" fill="#48A9CF"/>
<path d="M13.982 12.2841C13.9353 12.2485 13.8871 12.2115 13.8419 12.1751C13.6022 11.9823 13.3472 11.8044 13.1005 11.6325C13.0494 11.5969 12.9982 11.5612 12.9472 11.5254C12.6313 11.3035 12.3473 11.1957 12.079 11.1957C11.7176 11.1957 11.4024 11.3953 11.1424 11.7891C11.0272 11.9637 10.8874 12.0486 10.7151 12.0486C10.6133 12.0486 10.4975 12.0195 10.3712 11.9621C9.3515 11.4997 8.6234 10.7908 8.20705 9.85497C8.00578 9.40269 8.07102 9.10703 8.42525 8.8664C8.62636 8.72989 9.00081 8.47571 8.9743 7.98904C8.94425 7.43634 7.72472 5.77333 7.21091 5.58444C6.99335 5.50444 6.76478 5.5037 6.53033 5.58259C5.93964 5.78116 5.51578 6.12989 5.30441 6.591C5.10014 7.03656 5.10936 7.55973 5.33107 8.10391C5.97202 9.6774 6.87314 11.0493 8.00949 12.1814C9.12181 13.2896 10.4889 14.1973 12.0728 14.8794C12.2156 14.9408 12.3653 14.9743 12.4747 14.9987C12.5119 15.0071 12.5441 15.0142 12.5676 15.0207C12.5804 15.0242 12.5938 15.0261 12.6071 15.0262L12.6196 15.0262C12.6196 15.0262 12.6196 15.0262 12.6196 15.0262C13.3646 15.0262 14.2591 14.3455 14.5338 13.5694C14.7745 12.8899 14.3351 12.554 13.982 12.2841Z" fill="#48A9CF"/>
<path d="M10.8244 7.62136C10.6968 7.62459 10.4314 7.63115 10.3382 7.90152C10.2947 8.02787 10.2999 8.13755 10.3538 8.22755C10.4329 8.35957 10.5843 8.40004 10.7222 8.42226C11.2218 8.50242 11.4785 8.77877 11.5298 9.29184C11.5537 9.53105 11.7148 9.69808 11.9216 9.69808C11.9369 9.69808 11.9525 9.69718 11.9681 9.69528C12.2169 9.6657 12.3375 9.48295 12.3266 9.15216C12.3305 8.80687 12.1498 8.41491 11.8425 8.10274C11.5342 7.78956 11.1625 7.61322 10.8244 7.62136Z" fill="#48A9CF"/>
</svg>
